<svg width="120" height="120" viewBox="0 0 120 120" fill="none" xmlns="http://www.w3.org/2000/svg">
<mask id="path-1-inside-1_2500_2270" fill="white">
<path fill-rule="evenodd" clip-rule="evenodd" d="M40 15C41.3261 15 42.5979 15.5268 43.5355 16.4645C44.4732 17.4021 45 18.6739 45 20V25H75V20C75 18.6739 75.5268 17.4021 76.4645 16.4645C77.4021 15.5268 78.6739 15 80 15C81.3261 15 82.5979 15.5268 83.5355 16.4645C84.4732 17.4021 85 18.6739 85 20V25H95C97.6522 25 100.196 26.0536 102.071 27.9289C103.946 29.8043 105 32.3478 105 35V95C105 97.6522 103.946 100.196 102.071 102.071C100.196 103.946 97.6522 105 95 105H25C22.3478 105 19.8043 103.946 17.9289 102.071C16.0536 100.196 15 97.6522 15 95V35C15 32.3478 16.0536 29.8043 17.9289 27.9289C19.8043 26.0536 22.3478 25 25 25H35V20C35 18.6739 35.5268 17.4021 36.4645 16.4645C37.4021 15.5268 38.6739 15 40 15ZM59.705 50.705C51.515 42.42 39.755 50.085 40.005 61.38C40.155 68.18 45.48 74.6983 55.98 80.935L56.245 81.095C57.48 81.83 59.07 82.775 60 82.775C60.93 82.775 62.52 81.83 63.75 81.095L64.02 80.935C74.52 74.7017 79.845 68.1833 79.995 61.38C80.245 50.08 68.485 42.42 60.295 50.705C60.2173 50.7822 60.1121 50.8256 60.0025 50.8256C59.8929 50.8256 59.7878 50.7822 59.71 50.705"/>
</mask>
<path d="M40 15L40 9L40 15ZM45 25H39V31H45V25ZM75 25V31H81V25H75ZM80 15L80 9L80 15ZM85 25H79V31H85V25ZM95 25V19V25ZM15 95H9H15ZM25 25L25 19L25 25ZM35 25V31H41V25H35ZM40.005 61.38L46.0035 61.2477L46.0035 61.2472L40.005 61.38ZM55.98 80.935L59.0812 75.7986L59.0627 75.7874L59.0441 75.7764L55.98 80.935ZM56.245 81.095L53.1438 86.2314L53.1601 86.2412L53.1765 86.251L56.245 81.095ZM63.75 81.095L60.6912 75.9332L60.6817 75.9389L60.6723 75.9445L63.75 81.095ZM64.02 80.935L67.0788 86.0968L67.0829 86.0944L64.02 80.935ZM79.995 61.38L73.9965 61.2473L73.9965 61.2477L79.995 61.38ZM60.295 50.705L64.5239 54.9613L64.5431 54.9423L64.562 54.9231L60.295 50.705ZM40 15L40 21C39.7348 21 39.4804 20.8946 39.2929 20.7071L43.5355 16.4645L47.7782 12.2218C45.7153 10.1589 42.9174 9 40 9L40 15ZM43.5355 16.4645L39.2929 20.7071C39.1054 20.5196 39 20.2652 39 20H45H51C51 17.0826 49.8411 14.2847 47.7782 12.2218L43.5355 16.4645ZM45 20H39V25H45H51V20H45ZM45 25V31H75V25V19H45V25ZM75 25H81V20H75H69V25H75ZM75 20H81C81 20.2652 80.8946 20.5196 80.7071 20.7071L76.4645 16.4645L72.2218 12.2218C70.1589 14.2847 69 17.0826 69 20H75ZM76.4645 16.4645L80.7071 20.7071C80.5196 20.8946 80.2652 21 80 21L80 15L80 9C77.0826 9 74.2847 10.1589 72.2218 12.2218L76.4645 16.4645ZM80 15L80 21C79.7348 21 79.4804 20.8946 79.2929 20.7071L83.5355 16.4645L87.7782 12.2218C85.7153 10.1589 82.9174 9 80 9L80 15ZM83.5355 16.4645L79.2929 20.7071C79.1054 20.5196 79 20.2652 79 20H85H91C91 17.0826 89.8411 14.2847 87.7782 12.2218L83.5355 16.4645ZM85 20H79V25H85H91V20H85ZM85 25V31H95V25V19H85V25ZM95 25L95 31C96.0609 31 97.0783 31.4214 97.8284 32.1716L102.071 27.9289L106.314 23.6863C103.313 20.6857 99.2435 19 95 19L95 25ZM102.071 27.9289L97.8284 32.1716C98.5786 32.9217 99 33.9391 99 35H105H111C111 30.7565 109.314 26.6869 106.314 23.6863L102.071 27.9289ZM105 35H99V95H105H111V35H105ZM105 95H99C99 96.0609 98.5786 97.0783 97.8284 97.8284L102.071 102.071L106.314 106.314C109.314 103.313 111 99.2435 111 95H105ZM102.071 102.071L97.8284 97.8284C97.0783 98.5786 96.0609 99 95 99V105V111C99.2435 111 103.313 109.314 106.314 106.314L102.071 102.071ZM95 105V99H25V105V111H95V105ZM25 105V99C23.9391 99 22.9217 98.5786 22.1716 97.8284L17.9289 102.071L13.6863 106.314C16.6869 109.314 20.7565 111 25 111V105ZM17.9289 102.071L22.1716 97.8284C21.4214 97.0783 21 96.0609 21 95H15H9C9 99.2435 10.6857 103.313 13.6863 106.314L17.9289 102.071ZM15 95H21V35H15H9V95H15ZM15 35H21C21 33.9391 21.4214 32.9217 22.1716 32.1716L17.9289 27.9289L13.6863 23.6863C10.6857 26.6869 9 30.7565 9 35H15ZM17.9289 27.9289L22.1716 32.1716C22.9217 31.4214 23.9391 31 25 31L25 25L25 19C20.7565 19 16.6869 20.6857 13.6863 23.6863L17.9289 27.9289ZM25 25V31H35V25V19H25V25ZM35 25H41V20H35H29V25H35ZM35 20H41C41 20.2652 40.8946 20.5196 40.7071 20.7071L36.4645 16.4645L32.2218 12.2218C30.1589 14.2847 29 17.0826 29 20H35ZM36.4645 16.4645L40.7071 20.7071C40.5196 20.8946 40.2652 21 40 21L40 15L40 9C37.0826 9 34.2847 10.1589 32.2218 12.2218L36.4645 16.4645ZM59.705 50.705L63.972 46.4869C57.8656 40.3097 49.8579 39.9082 43.6682 43.5165C37.7836 46.947 33.8349 53.7623 34.0065 61.5128L40.005 61.38L46.0035 61.2472C45.9251 57.7027 47.7314 55.038 49.7118 53.8835C51.3871 52.9068 53.3544 52.8153 55.438 54.9231L59.705 50.705ZM40.005 61.38L34.0065 61.5123C34.2291 71.606 42.0358 79.6312 52.9159 86.0936L55.98 80.935L59.0441 75.7764C48.9242 69.7655 46.0809 64.754 46.0035 61.2477L40.005 61.38ZM55.98 80.935L52.8788 86.0714L53.1438 86.2314L56.245 81.095L59.3462 75.9586L59.0812 75.7986L55.98 80.935ZM56.245 81.095L53.1765 86.251C53.7525 86.5938 54.669 87.1429 55.5919 87.5962C56.245 87.9169 58.0003 88.775 60 88.775V82.775V76.775C60.3768 76.775 60.6589 76.8211 60.8114 76.852C60.9703 76.8841 61.07 76.9164 61.0982 76.9258C61.1425 76.9407 61.0793 76.922 60.8818 76.8251C60.6969 76.7342 60.4683 76.6115 60.1898 76.453C59.9109 76.2943 59.6286 76.1265 59.3135 75.939L56.245 81.095ZM60 82.775V88.775C62.0001 88.775 63.7551 87.9169 64.4094 87.5952C65.3343 87.1406 66.2493 86.5912 66.8277 86.2455L63.75 81.095L60.6723 75.9445C60.3609 76.1305 60.08 76.2979 59.8034 76.4557C59.5268 76.6134 59.2994 76.7356 59.1156 76.826C58.9192 76.9226 58.8565 76.941 58.9013 76.926C58.9297 76.9165 59.0295 76.8841 59.1885 76.852C59.3411 76.8211 59.6232 76.775 60 76.775V82.775ZM63.75 81.095L66.8088 86.2568L67.0788 86.0968L64.02 80.935L60.9612 75.7732L60.6912 75.9332L63.75 81.095ZM64.02 80.935L67.0829 86.0944C77.9645 79.6344 85.7709 71.6092 85.9935 61.5123L79.995 61.38L73.9965 61.2477C73.9191 64.7575 71.0755 69.7689 60.9571 75.7756L64.02 80.935ZM79.995 61.38L85.9935 61.5127C86.165 53.7606 82.217 46.9445 76.3312 43.5143C70.1406 39.9064 62.1334 40.3106 56.028 46.4869L60.295 50.705L64.562 54.9231C66.6466 52.8144 68.6144 52.9061 70.2888 53.882C72.268 55.0355 74.075 57.6994 73.9965 61.2473L79.995 61.38ZM60.295 50.705L56.0661 46.4487C57.1124 45.4091 58.5275 44.8256 60.0025 44.8256V50.8256V56.8256C61.6967 56.8256 63.3221 56.1554 64.5239 54.9613L60.295 50.705ZM60.0025 50.8256V44.8256C61.4776 44.8256 62.8927 45.4092 63.9389 46.4487L59.71 50.705L55.4811 54.9613C56.6828 56.1553 58.3082 56.8256 60.0025 56.8256V50.8256Z" fill="#1A1A1A" mask="url(#path-1-inside-1_2500_2270)"/>
</svg>
