<svg width="120" height="120" viewBox="0 0 120 120" fill="none" xmlns="http://www.w3.org/2000/svg">
<path d="M105 60C105 65.9095 103.836 71.7611 101.575 77.2208C99.3131 82.6804 95.9984 87.6412 91.8198 91.8198C87.6412 95.9984 82.6804 99.3131 77.2208 101.575C71.7611 103.836 65.9095 105 60 105C54.0905 105 48.2389 103.836 42.7792 101.575C37.3196 99.3131 32.3588 95.9984 28.1802 91.8198C24.0016 87.6412 20.6869 82.6804 18.4254 77.2208C16.164 71.7611 15 65.9095 15 60C15 48.0653 19.7411 36.6193 28.1802 28.1802C36.6193 19.7411 48.0653 15 60 15C71.9347 15 83.3807 19.7411 91.8198 28.1802C100.259 36.6193 105 48.0653 105 60Z" stroke="#1A1A1A" stroke-width="6" stroke-linecap="round" stroke-linejoin="round"/>
<path d="M45 75C49.25 78.15 54.425 80 60 80C65.575 80 70.75 78.15 75 75M61.25 15C59.4264 15 57.6301 15.4432 56.0158 16.2916C54.4016 17.14 53.0178 18.3681 51.9836 19.8702C50.9495 21.3722 50.2959 23.1031 50.0794 24.9138C49.8628 26.7245 50.0896 28.5607 50.7403 30.2643C51.391 31.9679 52.4461 33.4877 53.8147 34.6929C55.1833 35.8981 56.8243 36.7526 58.5965 37.1827C60.3687 37.6127 62.2188 37.6056 63.9876 37.1618C65.7564 36.7179 67.3908 35.8508 68.75 34.635M48.75 51.5C47.68 50.55 46.385 50 45 50C43.615 50 42.32 50.55 41.25 51.5M78.75 51.5C77.68 50.55 76.385 50 75 50C73.615 50 72.32 50.55 71.25 51.5" stroke="#1A1A1A" stroke-width="6" stroke-linecap="round" stroke-linejoin="round"/>
</svg>
