<svg width="120" height="120" viewBox="0 0 120 120" fill="none" xmlns="http://www.w3.org/2000/svg">
<path d="M20 64.55C27.69 73.7 39.735 71.865 45 55C50.81 73.61 68.335 76.345 75 55C79.67 69.96 91.915 74.665 100 64.835" stroke="#1A1A1A" stroke-width="6" stroke-linecap="round" stroke-linejoin="round"/>
<path d="M100 105V65C100 59.55 95.45 55 90 55H30C24.55 55 20 59.55 20 65V105M10 105H110M35 35V55M60 35V55M85 35V55M35 20V22.5M60 20V22.5M85 20V22.5" stroke="#1A1A1A" stroke-width="6" stroke-linecap="round" stroke-linejoin="round"/>
</svg>
