<?xml version="1.0" encoding="utf-8"?>
<!-- Generator: Adobe Illustrator 23.0.1, SVG Export Plug-In . SVG Version: 6.00 Build 0)  -->
<svg version="1.1" id="Layer_1" xmlns="http://www.w3.org/2000/svg" xmlns:xlink="http://www.w3.org/1999/xlink" x="0px" y="0px"
	 viewBox="0 0 500 200" style="enable-background:new 0 0 500 200;" xml:space="preserve">
<style type="text/css">
	.st0{fill:#0f172a;}
	.st1{fill-rule:evenodd;clip-rule:evenodd;fill:#19B6C9;}
	.st2{fill:#19B6C9;}
	.st3{fill-rule:evenodd;clip-rule:evenodd;fill:#1BB4C6;}
</style>
<g>
	<g>
		<path class="st0" d="M80.4,176.1h7v2.6h-9.8v-23h2.9V176.1z"/>
		<path class="st0" d="M96.3,178.8h-2.9v-23h2.9V178.8z"/>
		<path class="st0" d="M107.7,158.4v6.5h8v2.6h-8v11.3h-2.9v-23h11.1v2.6H107.7z"/>
		<path class="st0" d="M123.6,155.8h12.3v2.6h-9.5v6.4h9.2v2.6h-9.2v8.7h9.5v2.6h-12.3V155.8z"/>
		<path class="st0" d="M153.9,160.1c-0.9-1.4-1.9-2.2-3.7-2.2c-1.8,0-3.8,1.2-3.8,3.3c0,1.8,1.8,2.7,3.2,3.3l1.6,0.6
			c3.3,1.3,5.7,3.1,5.7,6.9c0,4.2-3.2,7.2-7.3,7.2c-3.7,0-6.6-2.7-7.1-6.4l2.9-0.6c0,2.5,2,4.4,4.4,4.4c2.5,0,4.2-2.1,4.2-4.5
			c0-2.5-2-3.5-4-4.4l-1.6-0.7c-2.6-1.1-5-2.6-5-5.8c0-3.7,3.3-5.9,6.8-5.9c2.6,0,4.7,1.2,5.9,3.5L153.9,160.1z"/>
		<path class="st0" d="M170.5,178.8h-2.9v-20.3h-5.4v-2.6h13.8v2.6h-5.4V178.8z"/>
		<path class="st0" d="M180,155.8h3.3l5.6,9.8l5.6-9.8h3.3l-7.5,13v10h-2.9v-10L180,155.8z"/>
		<path class="st0" d="M207,176.1h7v2.6h-9.8v-23h2.9V176.1z"/>
		<path class="st0" d="M220.1,155.8h12.3v2.6H223v6.4h9.2v2.6H223v8.7h9.5v2.6h-12.3V155.8z"/>
		<path class="st0" d="M260.3,155.8v14.6c0,4.4-0.9,8.9-6.2,8.9c-1.3,0-2.5-0.3-3.6-1l1.4-2.4c0.6,0.5,1.5,0.8,2.3,0.8
			c3.3,0,3.2-3.8,3.2-6.2v-14.6H260.3z"/>
		<path class="st0" d="M268.6,155.8h12.3v2.6h-9.5v6.4h9.2v2.6h-9.2v8.7h9.5v2.6h-12.3V155.8z"/>
		<path class="st0" d="M295.7,172.2l6.5-16.9l6.5,16.9l6.4-16.4h3.1l-9.5,23.9l-6.5-16.8l-6.5,16.8l-9.5-23.9h3.1L295.7,172.2z"/>
		<path class="st0" d="M324.2,155.8h12.3v2.6h-9.5v6.4h9.2v2.6h-9.2v8.7h9.5v2.6h-12.3V155.8z"/>
		<path class="st0" d="M347.2,176.1h7v2.6h-9.8v-23h2.9V176.1z"/>
		<path class="st0" d="M363.2,176.1h7v2.6h-9.8v-23h2.9V176.1z"/>
		<path class="st0" d="M376.3,155.8h12.3v2.6h-9.5v6.4h9.2v2.6h-9.2v8.7h9.5v2.6h-12.3V155.8z"/>
		<path class="st0" d="M410.7,178.8h-3.5l-6.8-9.7h-1.2v9.7h-2.9v-23h3.5c2,0,4.2,0,6.1,1.1c1.9,1.1,3,3.3,3,5.5
			c0,3.3-2.2,6-5.5,6.4L410.7,178.8z M399.3,166.7h0.9c2.9,0,6.1-0.5,6.1-4.2c0-3.6-3.4-4.1-6.2-4.1h-0.8V166.7z"/>
		<path class="st0" d="M414.2,155.8h3.3l5.6,9.8l5.6-9.8h3.3l-7.5,13v10h-2.9v-10L414.2,155.8z"/>
	</g>
</g>
<path class="st1" d="M103.7,104.6L95,126.1l0,0c-0.1,0.3-0.2,0.5-0.4,0.8c-0.2,0.2-0.4,0.5-0.6,0.7l0,0c-0.3,0.2-0.6,0.4-0.9,0.5
	c-0.3,0.1-0.7,0.2-1.1,0.2h-4.1h-1.7l0.6-1.5l30.2-73.9l0.3-0.7h0.7h5.4h0.7l0.3,0.7l30.2,73.9l0.6,1.5h-1.7h-4.1
	c-0.4,0-0.7,0-1-0.1v0c-0.3-0.1-0.6-0.3-0.9-0.5l0,0c-0.2-0.2-0.5-0.4-0.6-0.7c-0.2-0.2-0.3-0.5-0.4-0.8l0,0l-6.6-16.3l-2.1-5.2v0
	l-1.6-3.9l-15.1-37.3l0,0c-0.1-0.3-0.3-0.6-0.4-1l0-0.1l0,0.1l0,0c-0.1,0.3-0.2,0.7-0.4,1l0,0l-15.1,37.3l0,0L103.7,104.6
	L103.7,104.6z"/>
<path class="st1" d="M164.2,127.1V53.2v-1.1h1.1h2.6c0.3,0,0.6,0,0.8,0.1c0.3,0,0.5,0.1,0.8,0.2l0,0c0.3,0.1,0.5,0.3,0.8,0.5l0,0
	c0.2,0.2,0.4,0.4,0.6,0.7l0,0l45.7,61.1V53.2v-1.1h1.1h4.6h1.1v1.1v73.9v1.1h-1.1h-2.6c-0.6,0-1.1-0.1-1.6-0.4
	c-0.5-0.2-0.9-0.6-1.2-1.1l-45.8-61.2v61.6v1.1H170h-4.6h-1.1V127.1z"/>
<polygon class="st1" points="322.5,127.1 322.5,53.2 322.5,52.1 323.6,52.1 367.9,52.1 369,52.1 369,53.2 369,57.7 369,58.8 
	367.9,58.8 330.1,58.8 330.1,86.3 361.4,86.3 362.5,86.3 362.5,87.4 362.5,91.9 362.5,93 361.4,93 330.1,93 330.1,121.5 
	367.9,121.5 369,121.5 369,122.7 369,127.1 369,128.2 367.9,128.2 323.6,128.2 322.5,128.2 "/>
<path class="st2" d="M408.2,99.1l-2.1-2.7l0,0c-0.2-0.3-0.5-0.6-0.7-0.8c-0.2-0.2-0.5-0.4-0.7-0.5l0,0c-0.2-0.1-0.6-0.2-1-0.3v0
	c-0.5-0.1-1-0.1-1.7-0.1h-8.6v32.3v1.1h-1.1h-5.3h-1.1v-1.1V53.2v-1.1h1.1h18.9c0.5,0,1.1,0,1.7,0c0.6,0,1.2,0,1.7,0.1
	c3.5,0.2,6.7,0.7,9.4,1.5c2.8,0.8,5.1,2,7.1,3.5c2.3,1.8,4,3.9,5.1,6.5c1.1,2.6,1.7,5.5,1.7,8.8c0,1.5-0.1,2.9-0.4,4.2
	c-0.3,1.4-0.6,2.7-1.2,3.9h0c-0.5,1.2-1.1,2.4-1.9,3.5c-0.7,1.1-1.6,2.1-2.6,3l0,0c-1,0.9-2.1,1.8-3.2,2.5c-1.2,0.8-2.4,1.4-3.7,2
	l0,0c-1.4,0.6-2.8,1.1-4.3,1.4c-0.7,0.2-1.5,0.3-2.3,0.5c0.2,0.2,0.4,0.4,0.5,0.6l25.5,32l1.4,1.8h-2.3h-4.6c-0.3,0-0.7,0-1-0.1
	c-0.3-0.1-0.6-0.2-0.9-0.3h0c-0.3-0.2-0.6-0.4-0.9-0.6c-0.3-0.2-0.5-0.5-0.7-0.8l0,0L408.2,99.1L408.2,99.1z M393.3,88.6h11.7
	c0.7,0,1.4,0,2-0.1c0.6,0,1.3-0.1,1.9-0.2c0.8-0.1,1.6-0.2,2.4-0.4c0.8-0.2,1.5-0.3,2.2-0.5c1.2-0.4,2.4-0.8,3.4-1.3
	c1-0.5,1.9-1.1,2.8-1.8c0.8-0.7,1.6-1.4,2.2-2.2c0.6-0.8,1.2-1.7,1.6-2.6c0.4-1,0.8-2,1-3c0.2-1.1,0.3-2.2,0.3-3.4
	c0-2.5-0.4-4.6-1.2-6.4c-0.8-1.8-2-3.2-3.5-4.4c-1.3-1-2.9-1.7-4.7-2.3c-1.9-0.6-4-1-6.4-1.1h0c-0.6,0-1.1-0.1-1.6-0.1
	c-0.5,0-1,0-1.7,0h-12.4V88.6z"/>
<polygon class="st1" points="450.1,127.1 450.1,53.2 450.1,52.1 451.2,52.1 495.5,52.1 496.6,52.1 496.6,53.2 496.6,57.7 
	496.6,58.8 495.5,58.8 457.6,58.8 457.6,86.3 488.9,86.3 490.1,86.3 490.1,87.4 490.1,91.9 490.1,93 488.9,93 457.6,93 457.6,121.5 
	495.5,121.5 496.6,121.5 496.6,122.7 496.6,127.1 496.6,128.2 495.5,128.2 451.2,128.2 450.1,128.2 "/>
<path class="st1" d="M301.7,67.9c1.2,2,2.3,4.2,3.2,6.5c0.9,2.3,1.5,4.8,2,7.5c0.4,2.6,0.7,5.4,0.7,8.3c0,2.9-0.2,5.7-0.7,8.3
	c-0.4,2.6-1.1,5.1-2,7.5c-0.9,2.3-1.9,4.5-3.2,6.5c-1.2,2-2.7,3.8-4.3,5.5c-1.6,1.7-3.4,3.1-5.3,4.4c-1.9,1.3-4,2.3-6.2,3.2l0,0
	c-2.2,0.9-4.6,1.5-7,2c-2.5,0.4-5,0.7-7.7,0.7h-26.9h-1.1v-1.1v-14.9v-1.1h1.1h5.3h1.1v1.1v9.4h20.4c2.2,0,4.2-0.2,6.2-0.5
	c1.9-0.3,3.8-0.9,5.6-1.6c1.8-0.7,3.4-1.6,4.9-2.6c1.5-1,2.9-2.2,4.1-3.5c1.2-1.3,2.3-2.8,3.3-4.4c1-1.6,1.8-3.4,2.5-5.4
	c0.7-2,1.2-4,1.6-6.3c0.3-2.2,0.5-4.6,0.5-7.2c0-2.5-0.2-4.9-0.5-7.1c-0.3-2.2-0.9-4.3-1.6-6.3c-0.7-1.9-1.5-3.7-2.5-5.4
	c-1-1.6-2.1-3.1-3.3-4.4c-1.2-1.3-2.6-2.5-4.1-3.5c-1.5-1-3.1-1.9-4.9-2.6l0,0c-1.8-0.7-3.6-1.2-5.6-1.6c-2-0.3-4-0.5-6.2-0.5h-20.4
	v9.4v1.1h-1.1h-5.3h-1.1v-1.1V53.2v-1.1h1.1h26.9c2.7,0,5.3,0.2,7.7,0.7c2.5,0.4,4.8,1.1,7,2c2.2,0.9,4.3,2,6.2,3.2
	c1.9,1.3,3.7,2.7,5.3,4.4C299,64,300.4,65.9,301.7,67.9"/>
<path class="st3" d="M41.3,46c7-1.9,13.8-1.8,20.1-0.1c6.7,1.8,12.8,5.4,17.6,10.3l2,2c0.2,0.2,0.3,0.8-0.4,1.7
	c-0.3,0.4-0.7,0.9-1.3,1.7c-0.2,0.3-0.5,0.5-0.9,0.7c-0.4,0.2-0.9,0.3-1.6,0.1c-0.6-0.2-1.2-0.5-1.7-0.9c-0.2-0.1-0.3-0.2-0.5-0.3
	c-0.9-0.5-1.6-1-2.4-1.4c-0.7-0.4-1.4-0.8-2-1.1c-1.4-0.7-2.6-1.2-3.8-1.7c-1.3-0.5-2.6-0.8-4.3-1.3c-2.8-0.7-5.9-1-9-0.8
	c-3.3,0.2-6.6,0.9-9.5,2l-1-0.6l-2-9.5L41.3,46z M81.9,116.3l-2.1-2.2c-0.5-0.5-1-0.7-1.5-0.7c-0.8,0-1.5,0.5-1.6,0.6
	c-0.9,0.8-2.2,1.9-3.7,3c-1.5,1.1-3.2,2.2-4.9,2.9c-3.7,1.6-8.1,2.4-12.5,2.5c-4.5,0.1-8.9-0.5-12.4-1.9c-1.8-0.7-3.5-1.5-5-2.5
	c-6.8-4.4-11.1-11.4-13-19.3c-1.9-7.9-1.4-16.6,1.5-24.3c0.9-2.3,2-4.5,3.3-6.5l-0.3-1.1l-9.5-4.3l-0.9,0.3
	c-0.8,1.2-1.4,2.5-2.1,3.7c-0.6,1.3-1.2,2.6-1.6,3.9c-1.5,4.2-2.3,8.6-2.5,13.1c-0.2,4.6,0.2,9.3,1.2,13.7
	c1.9,8.1,5.9,15.6,11.7,21.2c5.4,5.2,12.3,8.8,20.6,10c6.9,0.9,13.4,0.5,19.3-1.3c6-1.8,11.2-4.8,15.2-8.9l0.1-0.1v0l0.3-0.2
	C82,117.3,82.4,116.8,81.9,116.3 M25,30.4c0-0.1,0-0.1,0-0.2v-6.6c0-2.4,4.7-2.5,5.7-2.6c1-0.2,2.8-0.5,2.8-0.5
	c-0.5,5.3-5.1,7.5-7,8.4C25.5,29.5,25,30.3,25,30.4z M33.5,33.3c-0.3-3.1-2.2-5.1-3.4-6c-1.2,1-2.5,1.6-3.4,2l-0.1,0.1
	c-0.9,0.5-1.3,1.2-1.4,1.3L25.1,31c0.4,0.8,1.4,1.4,3,1.7c0.6,0.1,1.6,0.3,2.9,0.3C31.7,33,33.5,33.3,33.5,33.3L33.5,33.3L33.5,33.3
	z M26,54.3c2.8-1.4,10-4.8,10.8-13c0,0-2.9,0.5-4.4,0.7c-1.5,0.2-8.7,0.3-8.8,4.1v10.2c0,0.1,0,0.2,0,0.3
	C23.7,56.3,24.4,55.1,26,54.3z M36.8,60.9L36.8,60.9c-0.1,0-2.8-0.4-3.9-0.4c-2.1,0-3.6-0.2-4.5-0.4c-2.5-0.5-4-1.4-4.6-2.6l0.3-0.7
	c0.1-0.1,0.6-1.3,2.1-2l0.2-0.1c1.3-0.6,3.2-1.6,5.2-3.2C33.5,53,36.3,56.1,36.8,60.9L36.8,60.9z M6,44.1c2.2-1.1,8-3.8,8.6-10.4
	c0,0-2.3,0.4-3.5,0.6c-1.2,0.2-7,0.3-7,3.2v8.1c0,0.1,0,0.1,0,0.2C4.2,45.8,4.8,44.8,6,44.1z M14.7,49.4c-0.4-3.8-2.7-6.3-4.1-7.4
	c-1.5,1.2-3.1,2-4.1,2.5l-0.2,0.1c-1.2,0.6-1.6,1.5-1.7,1.6l-0.3,0.5c0.5,1,1.7,1.7,3.7,2.1c0.7,0.1,2,0.3,3.6,0.3
	C12.5,49.1,14.6,49.4,14.7,49.4L14.7,49.4L14.7,49.4z"/>
</svg>
