<svg width="48" height="48" viewBox="0 0 48 48" fill="none" xmlns="http://www.w3.org/2000/svg">
    <path d="M9.21615 21.8881C9.60015 23.0401 8.73615 24.8641 9.60015 26.3041C10.4642 27.7441 12.3842 27.9361 13.2482 28.8001C13.7282 29.4721 14.2082 30.2401 14.4962 31.1041L10.4642 42.8161C10.2722 43.3921 10.4642 44.0641 11.0402 44.4481C11.6162 44.8321 12.2882 44.8321 12.7682 44.5441L15.2642 42.7201L16.1282 45.6961C16.3202 46.3681 16.8962 46.7521 17.5682 46.7521C18.2402 46.7521 18.8162 46.3681 19.0082 45.6961L22.9442 34.3681C23.6162 34.6561 24.3842 34.6561 25.0562 34.3681L28.9922 45.6961C29.1842 46.2721 29.7602 46.7521 30.4322 46.7521C31.1042 46.7521 31.6802 46.2721 31.8722 45.6961L32.7361 42.7201L35.2322 44.4481C35.8082 44.8321 36.4801 44.7361 36.9601 44.3521C37.4401 43.9681 37.7281 43.2961 37.5361 42.7201L33.6001 31.0081C33.9841 30.2401 34.3681 29.4721 34.8481 28.7041C35.7121 27.8401 37.6321 27.6481 38.4961 26.2081C39.2641 24.7681 38.4962 22.9441 38.7842 21.7921C39.0722 20.6401 40.7042 19.4881 40.7042 17.8561C40.7042 16.2241 39.0722 14.9761 38.7842 13.9201C38.4962 12.8641 39.2641 10.9441 38.4961 9.5041C37.6321 8.0641 35.7121 7.8721 34.8481 7.0081C33.9841 6.1441 33.7922 4.2241 32.3522 3.3601C30.9122 2.5921 29.0882 3.3601 27.9362 3.0721C26.7842 2.7841 25.6321 1.1521 24.0001 1.1521C22.3681 1.1521 21.1202 2.7841 20.0642 3.0721C18.9122 3.3601 17.0882 2.5921 15.6482 3.3601C14.2082 4.1281 14.0162 6.1441 13.1522 7.0081C12.2882 7.8721 10.3682 8.1601 9.60015 9.6001C8.83215 11.0401 9.60015 12.8641 9.31215 14.0161C9.02415 15.1681 7.39215 16.3201 7.39215 17.9521C7.39215 19.5841 8.92815 20.8321 9.21615 21.8881ZM17.6642 45.2161L16.7042 42.2401C16.5122 41.7601 16.2242 41.3761 15.7442 41.2801C15.2642 41.0881 14.7842 41.1841 14.4002 41.4721L11.9042 43.2001C15.9362 31.3921 15.6482 32.2561 15.6482 32.2561C17.0882 33.0241 18.9122 32.2561 20.0642 32.5441C20.6402 32.7361 21.1202 33.1201 21.6002 33.5041L17.6642 45.2161ZM33.6001 41.3761C33.2161 41.0881 32.6401 40.9921 32.2561 41.1841C31.7761 41.3761 31.3921 41.7601 31.2961 42.2401L30.4322 45.2161L26.4001 33.6001C26.8801 33.2161 27.3602 32.9281 27.9362 32.6401C29.0882 32.3521 30.9122 33.1201 32.3522 32.3521C32.4482 32.3521 32.0641 31.3921 36.0961 43.2001L33.6001 41.3761ZM9.69615 16.2241C10.7522 14.6881 10.9442 14.2081 10.7522 12.2881C10.5602 10.3681 10.6562 10.1761 12.4802 9.4081C14.2082 8.6401 14.5922 8.2561 15.3602 6.5281C16.1282 4.8001 16.4162 4.7041 18.2402 4.8001C20.0642 4.9921 20.6402 4.8001 22.1762 3.7441C23.7122 2.6881 24.0002 2.5921 25.6322 3.7441C27.2642 4.8961 27.6481 4.9921 29.5681 4.8001C31.4881 4.6081 31.6801 4.7041 32.4481 6.5281C33.2161 8.2561 33.6001 8.6401 35.3281 9.4081C37.0561 10.1761 37.1521 10.4641 37.0561 12.2881C36.8641 14.2081 37.0562 14.7841 38.1122 16.2241C39.1682 17.7601 39.2642 18.0481 38.1122 19.6801C36.9602 21.3121 36.8641 21.6961 37.0561 23.6161C37.2481 25.5361 37.1521 25.7281 35.3281 26.4961C33.5041 27.2641 33.2161 27.6481 32.4481 29.3761C31.6801 31.1041 31.3921 31.2001 29.5681 31.1041C27.6481 30.9121 27.1682 31.1041 25.6322 32.1601C24.0962 33.2161 23.8082 33.3121 22.1762 32.1601C21.4082 31.4881 20.3522 31.0081 19.2962 31.0081C18.2402 31.0081 16.9922 31.2961 16.3202 30.9121C15.4562 30.4321 15.1682 28.6081 14.2082 27.5521C13.2482 26.4961 11.3282 26.2081 10.8482 25.4401C10.3682 24.6721 11.0402 22.8481 10.6562 21.4081C10.2722 19.9681 8.83215 18.8161 8.83215 17.8561C8.92815 17.2801 9.31215 16.7041 9.69615 16.2241Z" fill="#2fbccc"/>
    <path d="M24.0001 29.2803C30.2401 29.2803 35.3281 24.1923 35.3281 17.9523C35.3281 11.7123 30.2401 6.62427 24.0001 6.62427C17.7601 6.62427 12.6721 11.7123 12.6721 17.9523C12.6721 24.1923 17.7601 29.2803 24.0001 29.2803ZM24.0001 8.06427C29.4721 8.06427 33.8881 12.4803 33.8881 17.9523C33.8881 23.4243 29.4721 27.7443 24.0001 27.7443C18.5281 27.7443 14.1121 23.3283 14.1121 17.8563C14.1121 15.2643 15.1681 12.7683 16.9921 10.8483C18.8161 8.92827 21.4081 8.06427 24.0001 8.06427Z" fill="#2fbccc"/>
</svg> 