<?xml version="1.0" encoding="utf-8"?>
<!-- Generator: Adobe Illustrator 23.0.1, SVG Export Plug-In . SVG Version: 6.00 Build 0)  -->
<svg version="1.1" id="Layer_1" xmlns="http://www.w3.org/2000/svg" xmlns:xlink="http://www.w3.org/1999/xlink" x="0px" y="0px"
	 viewBox="0 0 200 200" style="enable-background:new 0 0 200 200;" xml:space="preserve">
<style type="text/css">
	.st0{fill:#FFFFFF;}
</style>
<g>
	<path class="st0" d="M101.5,2c1.7,1.2,3.5,2.3,5,3.7c29.5,29.5,59,59,88.5,88.5c1.5,1.5,2.8,3.1,3,5.4c0.1,2.4-1,4.3-2.6,5.9
		c-7.9,7.9-15.8,15.8-23.7,23.7c-22,22-44,44-66,66c-2.2,2.2-4.6,3.5-7.7,2.4c-1.2-0.4-2.3-1.2-3.2-2.1
		c-30.1-30.1-60.2-60.1-90.3-90.3c-1-1-1.7-2.5-2.5-3.7c0-1,0-2,0-3.1c1.2-1.7,2.3-3.5,3.7-5C35,64.2,64.2,35,93.5,5.7
		c1.5-1.4,3.3-2.5,5-3.7C99.5,2,100.5,2,101.5,2z M181.1,100.1C154,73.1,126.9,45.9,100,19c-27,27-54.1,54.1-81,81
		c27,27,54.1,54.1,81.1,81.1C127.1,154.2,154.2,127,181.1,100.1z"/>
	<path class="st0" d="M111.8,74.6c-1.6-1.5-3.3-3-4.8-4.6c-3.1-3.1-3.2-7.3-0.4-10c2.8-2.7,6.9-2.5,9.9,0.5
		c5.5,5.4,10.9,10.9,16.4,16.4c3.1,3.1,3.1,6.9,0.1,10c-5.5,5.6-11.1,11.2-16.8,16.8c-2.9,2.9-7.1,2.9-9.8,0.2
		c-2.7-2.7-2.6-6.8,0.3-9.8c1-1.1,2.1-2.1,3.1-3.1c0.6-0.6,1.3-1.1,2-1.7c-0.1-0.1-0.2-0.3-0.3-0.4c-0.5,0-1.1-0.1-1.6-0.1
		c-5.3,0-10.6,0-15.9,0c-4.6,0-6.7,2-6.7,6.6c0,11.3,0,22.6,0,33.9c0,4.2-2.7,7.1-6.5,7.3c-3.7,0.1-6.6-2.5-6.9-6.2
		c0-0.6-0.1-1.1-0.1-1.7c0-11.1,0-22.2,0-33.3c0-11.9,8.2-20.1,20.1-20.1c5.9,0,11.7,0,17.6,0C111.6,75,111.7,74.8,111.8,74.6z"/>
</g>
</svg>
