<svg width="48" height="48" viewBox="0 0 48 48" fill="none" xmlns="http://www.w3.org/2000/svg">
    <path d="M43.968 26.112C43.776 25.824 43.296 25.728 43.008 25.92C42.72 26.112 42.624 26.592 42.816 26.88C44.256 28.8 44.928 31.104 44.928 33.504C44.928 39.744 39.84 44.736 33.696 44.736C27.552 44.736 22.464 39.648 22.464 33.504C22.464 27.36 27.552 22.272 33.696 22.272C36.384 22.272 38.88 23.232 40.896 24.96C41.184 25.248 41.568 25.152 41.856 24.864C42.144 24.576 42.048 24.192 41.76 23.904C39.456 21.984 36.576 20.928 33.6 20.928C26.688 20.928 21.024 26.592 21.024 33.504C21.024 40.416 26.784 46.08 33.696 46.08C40.608 46.08 46.272 40.416 46.272 33.504C46.272 30.816 45.504 28.224 43.968 26.112Z" fill="#2fbccc"/>
    <path d="M4.03202 7.19992C2.49602 9.31192 1.63202 11.9039 1.63202 14.5919C1.63202 21.5039 7.29602 27.1679 14.208 27.1679C21.12 27.1679 26.88 21.5039 26.88 14.5919C26.88 7.67992 21.216 1.91992 14.304 1.91992C11.328 1.91992 8.44802 2.97592 6.14402 4.89592C5.85602 5.18392 5.85602 5.56792 6.04802 5.85592C6.33602 6.14392 6.72002 6.14392 7.00802 5.95192C9.02402 4.22392 11.616 3.26392 14.208 3.26392C20.448 3.26392 25.44 8.35192 25.44 14.4959C25.44 20.6399 20.352 25.7279 14.208 25.7279C8.06402 25.7279 3.07202 20.7359 3.07202 14.5919C3.07202 12.1919 3.84002 9.88792 5.18402 7.96792C5.37602 7.67992 5.37602 7.19992 4.99202 7.00792C4.70402 6.81592 4.32002 6.81592 4.03202 7.19992Z" fill="#2fbccc"/>
    <path d="M39.648 16.5119C39.648 16.8959 39.936 17.1839 40.32 17.1839C40.704 17.1839 40.992 16.8959 40.992 16.5119C40.992 12.0959 37.824 8.44792 33.696 7.77592L33.984 7.58392C34.272 7.39192 34.368 6.91192 34.176 6.62392C33.984 6.33592 33.504 6.23992 33.216 6.43192L31.392 7.67992C31.2 7.77592 31.104 7.96792 31.104 8.15992V8.25592C31.104 8.44792 31.104 8.54392 31.2 8.63992L32.448 10.3679C32.64 10.6559 33.12 10.7519 33.408 10.4639C33.696 10.2719 33.792 9.79192 33.504 9.50392L33.12 9.02392C36.864 9.50392 39.648 12.6719 39.648 16.5119Z" fill="#2fbccc"/>
    <path d="M15.552 37.6319C15.36 37.3439 14.88 37.2479 14.592 37.5359C14.304 37.7279 14.208 38.2079 14.496 38.4959L14.88 38.9759C11.232 38.4959 8.352 35.3279 8.352 31.4879C8.352 31.1039 8.064 30.8159 7.68 30.8159C7.296 30.8159 7.008 31.1039 7.008 31.4879C7.008 35.9039 10.176 39.5519 14.304 40.2239L14.016 40.4159C13.728 40.6079 13.632 41.0879 13.824 41.3759C13.92 41.5679 14.208 41.6639 14.4 41.6639C14.496 41.6639 14.688 41.6639 14.784 41.5679L16.608 40.3199C16.8 40.2239 16.896 40.0319 16.896 39.8399C16.896 39.6479 16.896 39.4559 16.8 39.3599L15.552 37.6319Z" fill="#2fbccc"/>
    <path d="M33.312 28.0318C32.832 27.7438 31.872 27.1678 31.776 26.9758C31.584 26.7838 31.392 26.4958 31.296 26.3038C31.008 25.8238 30.72 25.2478 29.952 25.2478C28.896 25.2478 28.032 26.1118 28.032 27.1678C28.032 28.1278 28.704 28.8958 29.664 29.0878V29.6638C29.28 29.8558 28.992 30.2398 29.184 30.7198C29.184 30.7198 29.184 30.8158 29.28 30.8158C28.32 31.1998 27.84 32.3518 28.224 33.3118C28.416 33.6958 28.704 34.0798 28.992 34.2718C28.512 34.3678 28.224 34.7518 28.32 35.2318C28.32 35.3278 28.32 35.3278 28.32 35.4238C27.84 35.5198 27.648 35.9998 27.744 36.3838V36.4798C27.264 36.5758 27.072 37.0558 27.168 37.4398C27.168 37.5358 27.168 37.5358 27.264 37.6318C26.88 37.9198 26.784 38.3998 26.976 38.7838L27.072 38.8798C26.784 39.1678 26.784 39.7438 27.168 40.0318C27.36 40.1278 27.552 40.2238 27.744 40.2238C27.552 40.6078 27.84 41.0878 28.224 41.2798C28.512 41.3758 28.896 41.2798 29.088 41.0878C29.28 41.4718 29.76 41.7598 30.144 41.5678C30.336 41.4718 30.528 41.2798 30.624 41.0878C30.912 41.3758 31.488 41.4718 31.776 41.0878C31.968 40.8958 32.064 40.5118 31.968 40.2238C32.448 40.2238 32.832 39.8398 32.832 39.3598C32.832 39.1678 32.736 38.9758 32.64 38.7838C32.928 38.4958 32.928 37.9198 32.544 37.6318L32.448 37.5358C32.64 37.1518 32.544 36.6718 32.16 36.3838C32.064 36.3838 32.064 36.2878 31.968 36.2878C32.16 35.9038 31.968 35.4238 31.488 35.2318H31.392C31.584 34.8478 31.392 34.3678 30.912 34.1758C30.816 34.1758 30.816 34.1758 30.72 34.1758C31.584 33.5998 31.968 32.4478 31.392 31.5838C31.2 31.1998 30.816 30.9118 30.432 30.8158C30.624 30.4318 30.528 29.9518 30.144 29.6638C30.144 29.6638 30.048 29.6638 30.048 29.5678V28.7998C30.048 28.6078 29.952 28.5118 29.76 28.5118C28.992 28.5118 28.416 27.9358 28.416 27.1678C28.416 26.3998 28.992 25.8238 29.76 25.8238C30.144 25.8238 30.336 26.1118 30.624 26.5918C30.816 26.8798 30.912 27.1678 31.2 27.3598C31.488 27.6478 32.736 28.4158 32.928 28.5118C33.024 28.6078 33.216 28.5118 33.312 28.4158C33.504 28.3198 33.408 28.1278 33.312 28.0318ZM29.088 34.8478C29.28 34.8478 29.376 34.9438 29.376 35.1358C29.376 35.3278 29.28 35.4238 29.088 35.4238C28.896 35.4238 28.8 35.2318 28.8 35.1358C28.8 34.9438 28.896 34.8478 29.088 34.8478ZM28.512 35.9038C28.704 35.9038 28.8 35.9998 28.8 36.1918C28.8 36.3838 28.704 36.4798 28.512 36.4798C28.32 36.4798 28.224 36.3838 28.224 36.1918C28.224 35.9998 28.416 35.9038 28.512 35.9038ZM27.456 38.3998C27.456 38.2078 27.552 38.1118 27.744 38.1118C27.936 38.1118 28.032 38.2078 28.032 38.3998C28.032 38.5918 27.936 38.6878 27.744 38.6878C27.552 38.5918 27.456 38.4958 27.456 38.3998ZM27.936 36.9598C28.128 36.9598 28.224 37.0558 28.224 37.2478C28.224 37.4398 28.128 37.5358 27.936 37.5358C27.744 37.5358 27.648 37.4398 27.648 37.2478C27.744 37.1518 27.84 36.9598 27.936 36.9598ZM27.456 39.4558C27.456 39.2638 27.552 39.1678 27.744 39.1678C27.936 39.1678 28.032 39.2638 28.032 39.4558C28.032 39.6478 27.936 39.7438 27.744 39.7438C27.552 39.7438 27.456 39.6478 27.456 39.4558ZM28.512 40.7998C28.32 40.7998 28.224 40.7038 28.224 40.5118C28.224 40.3198 28.32 40.2238 28.512 40.2238C28.704 40.2238 28.8 40.3198 28.8 40.5118C28.8 40.7038 28.704 40.7998 28.512 40.7998ZM29.856 41.0878C29.664 41.0878 29.568 40.9918 29.568 40.7998C29.568 40.6078 29.664 40.5118 29.856 40.5118C30.048 40.5118 30.144 40.6078 30.144 40.7998C30.144 40.9918 30.048 41.0878 29.856 41.0878ZM31.296 40.7998C31.104 40.7998 31.008 40.7038 31.008 40.5118C31.008 40.3198 31.104 40.2238 31.296 40.2238C31.488 40.2238 31.584 40.3198 31.584 40.5118C31.488 40.7038 31.392 40.7998 31.296 40.7998ZM32.064 38.5918C31.872 38.5918 31.776 38.4958 31.776 38.3038C31.776 38.1118 31.872 38.0158 32.064 38.0158C32.256 38.0158 32.352 38.1118 32.352 38.3038C32.352 38.4958 32.256 38.5918 32.064 38.5918ZM32.064 39.7438C31.872 39.7438 31.776 39.6478 31.776 39.4558C31.776 39.2638 31.872 39.1678 32.064 39.1678C32.256 39.1678 32.352 39.2638 32.352 39.4558C32.352 39.6478 32.256 39.7438 32.064 39.7438ZM31.776 37.5358C31.584 37.5358 31.488 37.4398 31.488 37.2478C31.488 37.0558 31.584 36.9598 31.776 36.9598C31.968 36.9598 32.064 37.0558 32.064 37.2478C32.064 37.4398 31.968 37.5358 31.776 37.5358ZM31.296 36.4798C31.104 36.4798 31.008 36.3838 31.008 36.1918C31.008 35.9998 31.104 35.9038 31.296 35.9038C31.488 35.9038 31.584 35.9998 31.584 36.1918C31.488 36.2878 31.392 36.4798 31.296 36.4798ZM31.008 35.1358C31.008 35.3278 30.912 35.4238 30.72 35.4238C30.528 35.4238 30.432 35.3278 30.432 35.1358C30.432 34.9438 30.528 34.8478 30.72 34.8478C30.816 34.8478 31.008 34.9438 31.008 35.1358ZM30.528 35.9038C30.336 36.2878 30.528 36.7678 31.008 36.9598H31.104C30.912 37.3438 31.104 37.7278 31.392 37.9198C31.2 38.2078 31.296 38.5918 31.488 38.8798C31.296 39.0718 31.2 39.4558 31.296 39.7438C30.912 39.7438 30.624 39.9358 30.528 40.3198C30.24 40.0318 29.664 39.9358 29.376 40.3198C29.28 40.0318 28.992 39.7438 28.608 39.7438C28.704 39.4558 28.608 39.1678 28.416 38.8798C28.608 38.5918 28.704 38.2078 28.512 37.9198C28.8 37.7278 28.992 37.2478 28.8 36.9598C29.28 36.8638 29.472 36.3838 29.376 35.9998V35.9038C29.856 35.8078 30.048 35.3278 29.952 34.9438C29.952 34.8478 29.856 34.6558 29.76 34.5598C29.952 34.5598 30.048 34.5598 30.24 34.5598C29.952 34.8478 29.952 35.4238 30.24 35.7118C30.24 35.8078 30.336 35.8078 30.528 35.9038ZM31.296 32.6398C31.296 33.4078 30.72 33.9838 29.952 33.9838C29.184 33.9838 28.608 33.4078 28.608 32.6398C28.608 31.8718 29.184 31.2958 29.952 31.2958C30.624 31.2958 31.296 31.8718 31.296 32.6398ZM29.664 30.4318C29.664 30.2398 29.76 30.1438 29.952 30.1438C30.144 30.1438 30.24 30.2398 30.24 30.4318C30.24 30.6238 30.048 30.7198 29.856 30.7198C29.76 30.7198 29.664 30.6238 29.664 30.4318Z" fill="#2fbccc"/>
    <path d="M40.416 28.0318C39.936 27.7438 38.976 27.1678 38.88 26.9758C38.688 26.7838 38.496 26.4958 38.4 26.3038C38.112 25.8238 37.824 25.2478 37.056 25.2478C36 25.2478 35.136 26.1118 35.136 27.1678C35.136 28.1278 35.808 28.8958 36.768 29.0878V29.6638C36.384 29.8558 36.096 30.2398 36.288 30.7198C36.288 30.7198 36.288 30.8158 36.384 30.8158C35.424 31.1998 34.944 32.3518 35.328 33.3118C35.52 33.6958 35.808 34.0798 36.096 34.2718C35.616 34.3678 35.328 34.7518 35.424 35.2318C35.424 35.3278 35.424 35.3278 35.424 35.4238C34.944 35.5198 34.752 35.9998 34.848 36.3838V36.4798C34.368 36.5758 34.176 37.0558 34.272 37.4398C34.272 37.5358 34.272 37.5358 34.368 37.6318C33.984 37.9198 33.888 38.3998 34.08 38.7838L34.176 38.8798C33.888 39.1678 33.888 39.7438 34.272 40.0318C34.464 40.1278 34.656 40.2238 34.848 40.2238C34.656 40.6078 34.944 41.0878 35.328 41.2798C35.616 41.3758 36 41.2798 36.192 41.0878C36.384 41.4718 36.864 41.7598 37.248 41.5678C37.44 41.4718 37.632 41.2798 37.728 41.0878C38.016 41.3758 38.592 41.4718 38.88 41.0878C39.072 40.8958 39.168 40.5118 39.072 40.2238C39.552 40.2238 39.936 39.8398 39.936 39.3598C39.936 39.1678 39.84 38.9758 39.744 38.7838C40.032 38.4958 40.032 37.9198 39.648 37.6318L39.552 37.5358C39.744 37.1518 39.648 36.6718 39.264 36.3838C39.168 36.3838 39.168 36.2878 39.072 36.2878C39.264 35.9038 39.072 35.4238 38.592 35.2318H38.496C38.688 34.8478 38.496 34.3678 38.016 34.1758C37.92 34.1758 37.92 34.1758 37.824 34.1758C38.688 33.5998 39.072 32.4478 38.496 31.5838C38.304 31.1998 37.92 30.9118 37.536 30.8158C37.728 30.4318 37.632 29.9518 37.248 29.6638C37.248 29.6638 37.152 29.6638 37.152 29.5678V28.7998C37.152 28.6078 37.056 28.5118 36.864 28.5118C36.096 28.5118 35.52 27.9358 35.52 27.1678C35.52 26.3998 36.096 25.8238 36.864 25.8238C37.248 25.8238 37.44 26.1118 37.728 26.5918C37.92 26.8798 38.016 27.1678 38.304 27.3598C38.592 27.6478 39.84 28.4158 40.032 28.5118C40.128 28.6078 40.32 28.5118 40.416 28.4158C40.608 28.3198 40.512 28.1278 40.416 28.0318ZM36.192 34.8478C36.384 34.8478 36.48 34.9438 36.48 35.1358C36.48 35.3278 36.384 35.4238 36.192 35.4238C36 35.4238 35.904 35.3278 35.904 35.1358C35.904 34.9438 36 34.8478 36.192 34.8478ZM35.616 35.9038C35.808 35.9038 35.904 35.9998 35.904 36.1918C35.904 36.3838 35.808 36.4798 35.616 36.4798C35.424 36.4798 35.328 36.3838 35.328 36.1918C35.328 35.9998 35.424 35.9038 35.616 35.9038ZM34.56 38.3998C34.56 38.2078 34.656 38.1118 34.848 38.1118C35.04 38.1118 35.136 38.2078 35.136 38.3998C35.136 38.5918 35.04 38.6878 34.848 38.6878C34.656 38.5918 34.56 38.4958 34.56 38.3998ZM35.04 36.9598C35.232 36.9598 35.328 37.0558 35.328 37.2478C35.328 37.4398 35.232 37.5358 35.04 37.5358C34.848 37.5358 34.752 37.4398 34.752 37.2478C34.752 37.1518 34.944 36.9598 35.04 36.9598ZM34.56 39.4558C34.56 39.2638 34.656 39.1678 34.848 39.1678C35.04 39.1678 35.136 39.2638 35.136 39.4558C35.136 39.6478 35.04 39.7438 34.848 39.7438C34.656 39.7438 34.56 39.6478 34.56 39.4558ZM35.616 40.7998C35.424 40.7998 35.328 40.7038 35.328 40.5118C35.328 40.3198 35.424 40.2238 35.616 40.2238C35.808 40.2238 35.904 40.3198 35.904 40.5118C35.904 40.7038 35.808 40.7998 35.616 40.7998ZM36.96 41.0878C36.768 41.0878 36.672 40.9918 36.672 40.7998C36.672 40.6078 36.768 40.5118 36.96 40.5118C37.152 40.5118 37.248 40.6078 37.248 40.7998C37.248 40.9918 37.152 41.0878 36.96 41.0878ZM38.304 40.7998C38.112 40.7998 38.016 40.7038 38.016 40.5118C38.016 40.3198 38.112 40.2238 38.304 40.2238C38.496 40.2238 38.592 40.3198 38.592 40.5118C38.592 40.7038 38.496 40.7998 38.304 40.7998ZM39.168 38.5918C38.976 38.5918 38.88 38.4958 38.88 38.3038C38.88 38.1118 38.976 38.0158 39.168 38.0158C39.36 38.0158 39.456 38.1118 39.456 38.3038C39.456 38.4958 39.264 38.5918 39.168 38.5918ZM39.168 39.7438C38.976 39.7438 38.88 39.6478 38.88 39.4558C38.88 39.2638 38.976 39.1678 39.168 39.1678C39.36 39.1678 39.456 39.2638 39.456 39.4558C39.456 39.6478 39.264 39.7438 39.168 39.7438ZM38.88 37.5358C38.688 37.5358 38.592 37.4398 38.592 37.2478C38.592 37.0558 38.688 36.9598 38.88 36.9598C39.072 36.9598 39.168 37.0558 39.168 37.2478C39.168 37.4398 39.072 37.5358 38.88 37.5358ZM38.304 36.4798C38.112 36.4798 38.016 36.3838 38.016 36.1918C38.016 35.9998 38.112 35.9038 38.304 35.9038C38.496 35.9038 38.592 35.9998 38.592 36.1918C38.592 36.2878 38.496 36.4798 38.304 36.4798ZM38.112 35.1358C38.112 35.3278 38.016 35.4238 37.824 35.4238C37.632 35.4238 37.536 35.3278 37.536 35.1358C37.536 34.9438 37.632 34.8478 37.824 34.8478C37.92 34.8478 38.112 34.9438 38.112 35.1358ZM37.536 35.9038C37.344 36.2878 37.536 36.7678 38.016 36.9598H38.112C37.92 37.3438 38.112 37.7278 38.4 37.9198C38.208 38.2078 38.304 38.5918 38.496 38.8798C38.304 39.0718 38.208 39.4558 38.304 39.7438C37.92 39.7438 37.632 39.9358 37.536 40.3198C37.248 40.0318 36.672 39.9358 36.384 40.3198C36.288 40.0318 36 39.7438 35.616 39.7438C35.712 39.4558 35.616 39.1678 35.424 38.8798C35.616 38.5918 35.712 38.2078 35.52 37.9198C35.808 37.7278 36 37.2478 35.808 36.9598C36.288 36.8638 36.48 36.3838 36.384 35.9998V35.9038C36.864 35.8078 37.056 35.3278 36.96 34.9438C36.96 34.8478 36.864 34.6558 36.768 34.5598C36.96 34.5598 37.056 34.5598 37.248 34.5598C36.96 34.8478 36.96 35.4238 37.248 35.7118C37.344 35.8078 37.44 35.8078 37.536 35.9038ZM38.304 32.6398C38.304 33.4078 37.728 33.9838 36.96 33.9838C36.192 33.9838 35.616 33.4078 35.616 32.6398C35.616 31.8718 36.192 31.2958 36.96 31.2958C37.728 31.2958 38.304 31.8718 38.304 32.6398ZM36.672 30.4318C36.672 30.2398 36.768 30.1438 36.96 30.1438C37.152 30.1438 37.248 30.2398 37.248 30.4318C37.248 30.6238 37.152 30.7198 36.96 30.7198C36.864 30.7198 36.672 30.6238 36.672 30.4318Z" fill="#2fbccc"/>
    <path d="M13.44 10.08C13.248 9.88797 13.152 9.69597 12.96 9.50397C12.576 9.02397 12.192 8.54397 11.808 8.06397C11.712 7.96797 11.712 7.96797 11.808 7.87197C12.096 7.48797 12.288 7.19997 12.576 6.81597C12.576 6.71997 12.672 6.71997 12.768 6.71997C13.728 6.71997 14.688 6.71997 15.744 6.71997C15.84 6.71997 15.84 6.71997 15.84 6.81597C16.128 7.19997 16.416 7.58397 16.704 7.96797C16.128 8.63997 15.648 9.31197 15.072 9.98397C16.992 10.272 18.432 11.232 19.392 12.864C20.16 14.112 20.448 15.552 20.16 17.088C19.584 20.16 16.896 22.272 13.728 22.08C10.656 21.888 8.16003 19.392 8.06403 16.224C8.16003 13.152 10.464 10.56 13.44 10.08ZM14.304 11.232C11.616 11.232 9.40803 13.44 9.40803 16.128C9.40803 18.816 11.616 21.024 14.208 21.024C16.896 21.024 19.104 18.816 19.104 16.128C19.2 13.44 16.992 11.232 14.304 11.232ZM13.824 8.25597C14.016 8.83197 14.112 9.40797 14.304 9.88797C14.496 9.31197 14.592 8.83197 14.784 8.25597C14.4 8.25597 14.112 8.25597 13.824 8.25597ZM12.576 8.25597C13.056 8.83197 13.44 9.31197 13.824 9.79197C13.728 9.31197 13.536 8.73597 13.44 8.25597C13.44 8.25597 13.44 8.15997 13.344 8.15997C13.056 8.25597 12.864 8.25597 12.576 8.25597ZM14.784 9.88797C15.264 9.40797 15.648 8.83197 16.032 8.35197C15.744 8.35197 15.552 8.35197 15.264 8.35197C15.168 8.35197 15.168 8.35197 15.168 8.44797C15.072 8.73597 14.976 9.02397 14.976 9.31197C14.88 9.40797 14.784 9.69597 14.784 9.88797ZM13.824 7.29597C13.632 7.29597 13.44 7.29597 13.248 7.29597C13.344 7.48797 13.44 7.58397 13.536 7.67997C13.632 7.58397 13.728 7.48797 13.824 7.29597ZM14.976 7.77597C15.072 7.67997 15.168 7.48797 15.264 7.39197C15.072 7.39197 14.88 7.39197 14.688 7.39197C14.784 7.48797 14.88 7.58397 14.976 7.77597ZM12.48 7.87197C12.672 7.87197 12.864 7.87197 13.056 7.87197C12.96 7.77597 12.864 7.58397 12.768 7.48797C12.672 7.58397 12.672 7.67997 12.48 7.87197ZM16.032 7.87197C15.936 7.67997 15.84 7.58397 15.744 7.48797C15.648 7.58397 15.552 7.77597 15.456 7.87197C15.648 7.87197 15.84 7.87197 16.032 7.87197ZM14.016 7.87197C14.208 7.87197 14.4 7.87197 14.592 7.87197C14.496 7.67997 14.4 7.58397 14.304 7.48797C14.208 7.58397 14.112 7.67997 14.016 7.87197Z" fill="#2fbccc"/>
</svg>