<svg width="120" height="120" viewBox="0 0 120 120" fill="none" xmlns="http://www.w3.org/2000/svg">
<path d="M60 57.7013C60 57.7013 56.79 37.5975 56.79 36.1969C56.79 34.7963 58.23 33.6581 60 33.6581C61.77 33.6581 63.21 34.7944 63.21 36.1969C63.21 37.5994 60 57.7013 60 57.7013ZM60 62.3944C60 62.3944 63.21 82.4962 63.21 83.8988C63.21 85.3012 61.77 86.4375 60 86.4375C58.23 86.4375 56.79 85.3031 56.79 83.8988C56.79 82.4944 60 62.3944 60 62.3944ZM57.6525 60.0469C57.6525 60.0469 37.5506 63.2569 36.15 63.2569C34.7475 63.2569 33.6113 61.8188 33.6113 60.0469C33.6113 58.2769 34.7475 56.8387 36.15 56.8387C37.5506 56.8387 57.6525 60.0469 57.6525 60.0469ZM62.3475 60.0469C62.3475 60.0469 82.4494 56.8387 83.8519 56.8387C85.2544 56.8387 86.3906 58.2769 86.3906 60.0469C86.3906 61.8169 85.2544 63.2569 83.8519 63.2569C82.4494 63.2569 62.3475 60.0469 62.3475 60.0469ZM58.3387 58.3894C58.3387 58.3894 41.8556 46.4456 40.8675 45.4538C39.8756 44.4638 40.0875 42.6431 41.3419 41.3906C42.5944 40.1381 44.4131 39.9263 45.405 40.9163C46.3931 41.9062 58.3387 58.3894 58.3387 58.3894ZM61.6613 61.7081C61.6613 61.7081 78.1444 73.6519 79.1325 74.6438C80.1244 75.6356 79.9125 77.4544 78.6581 78.7087C77.4056 79.9613 75.5869 80.1731 74.595 79.1813C73.6069 78.1894 61.6613 61.7081 61.6613 61.7081ZM58.3387 61.7081C58.3387 61.7081 46.3931 78.1894 45.405 79.1813C44.4131 80.1731 42.5944 79.9613 41.3419 78.7087C40.0875 77.4544 39.8756 75.6356 40.8675 74.6438C41.8556 73.6519 58.3387 61.7081 58.3387 61.7081ZM61.6613 58.3894C61.6613 58.3894 73.6069 41.9062 74.595 40.9163C75.5869 39.9263 77.4056 40.1381 78.6581 41.3906C79.9125 42.6431 80.1244 44.4638 79.1325 45.4538C78.1444 46.4456 61.6613 58.3894 61.6613 58.3894ZM58.4175 56.1338C58.4175 56.1338 41.8894 23.7862 40.9444 21.4462C39.9994 19.1062 40.5638 16.6725 42.2062 16.0087C43.8488 15.345 45.9469 16.7044 46.8919 19.0444C47.8369 21.3806 58.4175 56.1338 58.4175 56.1338ZM61.5825 63.9656C61.5825 63.9656 78.1106 96.3113 79.0556 98.6531C80.0006 100.991 79.4363 103.425 77.7938 104.087C76.1494 104.753 74.0531 103.395 73.1081 101.055C72.1631 98.715 61.5825 63.9656 61.5825 63.9656ZM56.0831 61.6312C56.0831 61.6312 23.7356 78.1594 21.3956 79.1044C19.0556 80.0494 16.6219 79.485 15.9581 77.8406C15.2944 76.2 16.6538 74.1 18.9938 73.155C21.3337 72.21 56.0831 61.6312 56.0831 61.6312ZM63.9169 58.4662C63.9169 58.4662 96.2644 41.9381 98.6044 40.9931C100.944 40.0481 103.378 40.6144 104.042 42.2569C104.706 43.8994 103.346 45.9975 101.006 46.9425C98.6681 47.8856 63.9169 58.4662 63.9169 58.4662ZM56.1113 58.3988C56.1113 58.3988 21.5494 47.2144 19.2281 46.2281C16.9069 45.2419 15.585 43.1231 16.2769 41.49C16.9687 39.8606 19.4156 39.3375 21.7369 40.3237C24.0581 41.3063 56.1113 58.3988 56.1113 58.3988ZM63.8888 61.6987C63.8888 61.6987 98.4506 72.8831 100.772 73.8675C103.093 74.8519 104.415 76.9762 103.723 78.6056C103.031 80.2388 100.584 80.7619 98.2631 79.7738C95.9419 78.7894 63.8888 61.6987 63.8888 61.6987ZM58.35 63.9375C58.35 63.9375 47.1656 98.4994 46.1794 100.823C45.1931 103.144 43.0725 104.466 41.4412 103.774C39.81 103.08 39.2887 100.635 40.2713 98.3137C41.2594 95.9906 58.35 63.9375 58.35 63.9375ZM61.65 56.16C61.65 56.16 72.8344 21.5981 73.8206 19.2769C74.8069 16.9538 76.9275 15.6337 78.5587 16.3256C80.19 17.0175 80.7131 19.4606 79.7288 21.7838C78.7406 24.1069 61.65 56.16 61.65 56.16ZM60.0112 88.2525C60.0112 88.2525 63.225 111.66 63.225 113.291C63.225 114.923 61.7887 116.25 60.0169 116.25C58.245 116.25 56.8088 114.928 56.8088 113.295C56.8088 111.662 60.0112 88.2525 60.0112 88.2525ZM59.9906 29.9156C59.9906 29.9156 56.775 8.03813 56.775 6.51375C56.775 4.98937 58.2113 3.75 59.9831 3.75C61.755 3.75 63.1912 4.98563 63.1912 6.51188C63.1912 8.03813 59.9906 29.9156 59.9906 29.9156ZM79.9856 79.9688C79.9856 79.9688 98.8106 94.2487 99.9619 95.4019C101.119 96.5569 101.038 98.5069 99.7856 99.7613C98.5331 101.014 96.5813 101.094 95.4281 99.9412C94.2731 98.79 79.9856 79.9688 79.9856 79.9688ZM38.7206 38.7338C38.7206 38.7338 20.9775 25.5375 19.8975 24.4594C18.8194 23.3794 18.96 21.4894 20.2125 20.2369C21.465 18.9825 23.3569 18.8419 24.435 19.9219C25.515 20.9981 38.7206 38.7338 38.7206 38.7338ZM79.9856 40.0294C79.9856 40.0294 94.2731 21.2119 95.4281 20.0588C96.5813 18.9037 98.5331 18.9844 99.7856 20.2387C101.038 21.4931 101.119 23.4431 99.9619 24.5963C98.8106 25.7475 79.9856 40.0294 79.9856 40.0294ZM38.7206 81.2644C38.7206 81.2644 25.515 99.0019 24.435 100.078C23.3569 101.158 21.465 101.016 20.2125 99.7631C18.96 98.5088 18.8194 96.6188 19.8975 95.5406C20.9775 94.4625 38.7206 81.2644 38.7206 81.2644ZM88.2525 59.9888C88.2525 59.9888 111.66 56.775 113.293 56.775C114.926 56.7731 116.25 58.2113 116.25 59.9813C116.252 61.7531 114.93 63.1912 113.297 63.1912C111.664 63.1931 88.2525 59.9888 88.2525 59.9888ZM29.9175 60.0112C29.9175 60.0112 8.03625 63.2231 6.51375 63.225C4.98562 63.225 3.75 61.7869 3.75 60.0169C3.75 58.2469 4.98562 56.8069 6.51375 56.8069C8.03625 56.8069 29.9175 60.0112 29.9175 60.0112Z" fill="#1A1A1A"/>
<path d="M38.865 13.005C40.7704 13.005 42.315 11.4604 42.315 9.55498C42.315 7.6496 40.7704 6.10498 38.865 6.10498C36.9597 6.10498 35.415 7.6496 35.415 9.55498C35.415 11.4604 36.9597 13.005 38.865 13.005Z" fill="#1A1A1A"/>
<path d="M81.6448 13.005C83.5502 13.005 85.0948 11.4604 85.0948 9.55498C85.0948 7.6496 83.5502 6.10498 81.6448 6.10498C79.7394 6.10498 78.1948 7.6496 78.1948 9.55498C78.1948 11.4604 79.7394 13.005 81.6448 13.005Z" fill="#1A1A1A"/>
<path d="M37.8918 114.124C39.7982 114.124 41.3437 112.578 41.3437 110.672C41.3437 108.765 39.7982 107.22 37.8918 107.22C35.9854 107.22 34.4399 108.765 34.4399 110.672C34.4399 112.578 35.9854 114.124 37.8918 114.124Z" fill="#1A1A1A"/>
<path d="M80.6721 114.124C82.5785 114.124 84.124 112.578 84.124 110.672C84.124 108.765 82.5785 107.22 80.6721 107.22C78.7657 107.22 77.2202 108.765 77.2202 110.672C77.2202 112.578 78.7657 114.124 80.6721 114.124Z" fill="#1A1A1A"/>
<path d="M9.20977 84.4669C11.1151 84.4669 12.6598 82.9223 12.6598 81.0169C12.6598 79.1115 11.1151 77.5669 9.20977 77.5669C7.30438 77.5669 5.75977 79.1115 5.75977 81.0169C5.75977 82.9223 7.30438 84.4669 9.20977 84.4669Z" fill="#1A1A1A"/>
<path d="M9.20977 41.6869C11.1151 41.6869 12.6598 40.1422 12.6598 38.2369C12.6598 36.3315 11.1151 34.7869 9.20977 34.7869C7.30438 34.7869 5.75977 36.3315 5.75977 38.2369C5.75977 40.1422 7.30438 41.6869 9.20977 41.6869Z" fill="#1A1A1A"/>
<path d="M110.327 85.4418C112.233 85.4418 113.779 83.8964 113.779 81.99C113.779 80.0835 112.233 78.5381 110.327 78.5381C108.42 78.5381 106.875 80.0835 106.875 81.99C106.875 83.8964 108.42 85.4418 110.327 85.4418Z" fill="#1A1A1A"/>
<path d="M110.327 42.66C112.232 42.66 113.777 41.1154 113.777 39.21C113.777 37.3046 112.232 35.76 110.327 35.76C108.422 35.76 106.877 37.3046 106.877 39.21C106.877 41.1154 108.422 42.66 110.327 42.66Z" fill="#1A1A1A"/>
</svg>
