<svg width="48" height="48" viewBox="0 0 48 48" fill="none" xmlns="http://www.w3.org/2000/svg">
<path d="M24.8159 45.9361C24.0479 45.8881 23.3279 45.8401 22.5599 45.6961C11.1359 43.7281 3.79193 32.0639 6.81593 20.7361C8.97593 12.6721 16.5599 5.61611 26.5919 6.00011C27.6479 6.04811 28.2239 5.52011 28.9439 4.89611C26.3519 4.27211 23.0399 4.46411 19.7759 5.52011C11.9039 8.16011 6.91193 13.5841 5.27993 21.7921C3.64793 29.9521 6.23993 36.9121 12.3839 42.3841C15.8879 45.5041 20.1119 46.9441 24.7199 47.3284C25.1999 47.3764 25.5359 47.3764 25.5839 46.6564C25.6319 45.9841 25.3439 45.9361 24.8159 45.9361ZM43.0079 9.98411C42.2879 9.50411 41.5679 9.02411 40.7999 8.64011C40.0799 8.25611 39.8399 7.92011 40.1759 7.05611C40.7517 5.52011 41.1359 3.88811 41.6159 2.30411C41.7599 1.77611 41.7117 1.29611 41.3279 0.864113C40.9437 0.432113 40.6559 0.336113 40.3679 0.960113C39.8399 2.01611 39.2637 3.02411 38.7359 4.08011C38.2559 4.94411 37.9679 6.24011 37.2479 6.48011C36.5759 6.72011 35.5199 5.85611 34.6559 5.52011C34.0317 5.28011 33.8399 4.94411 33.8879 4.27211C33.9837 3.36011 33.9359 2.49611 32.7837 2.01611C32.6399 3.84011 32.3039 5.52011 30.5759 6.48011C30.3837 6.57611 29.7599 6.72011 30.1437 7.20011C30.4317 7.58411 30.7679 8.16011 31.3437 7.58411C32.6397 6.43211 33.8397 6.76811 34.9917 7.87211C35.1359 8.01611 35.3277 8.16011 35.5197 8.20811C36.0477 8.44811 36.0477 8.73611 35.7597 9.26411C34.7517 10.8961 33.8397 12.5761 32.8317 14.1601C32.3997 14.8801 32.7359 15.0721 33.2637 15.2641C33.7437 15.5041 34.0317 15.1681 34.3197 14.8801C35.5197 13.7281 36.5277 12.3841 37.5357 11.0881C37.9677 10.5121 38.3035 10.2721 39.0235 10.7521C39.8877 11.3281 40.8957 11.8081 41.8557 12.2401C42.4797 12.5281 43.1515 12.7201 43.5835 11.9521C43.8719 11.2321 43.7759 10.5121 43.0079 9.98411ZM35.4719 15.0241C34.8479 15.6961 35.5199 15.7921 35.7599 16.1281C35.9999 16.4161 36.2879 16.7041 36.5759 17.0401C35.8559 17.5681 35.0879 17.9041 34.3679 18.2881C33.8399 18.5761 33.6479 18.4321 33.4079 17.8561C32.7359 16.0321 31.8719 14.3521 30.4319 12.9601C30.7199 12.8161 30.9119 12.9601 31.1519 13.0561C31.7762 13.4881 32.0639 13.0561 32.3039 12.5761C32.5919 11.9041 31.9199 12.0001 31.6799 11.9041C22.6559 8.06411 12.0959 14.1601 10.7999 23.9521C9.93593 30.5761 13.1519 36.8161 19.1039 39.9361C24.6719 42.8161 31.5359 41.8081 36.3359 37.3439C42.5759 31.4881 42.7679 21.2159 36.6237 15.2639C36.3359 14.9761 36.0959 14.3521 35.4719 15.0241ZM25.2959 25.3441C25.2959 25.9201 25.0559 26.0164 24.5759 26.0164C23.6159 25.9684 22.6559 26.0164 21.6959 26.0164C20.7359 26.0164 19.7759 25.9684 18.8159 26.0164C18.2879 26.0164 18.1919 25.8721 18.1919 25.3441C18.2399 23.7601 18.4799 22.2241 18.7679 20.6881C18.8639 20.1121 19.1039 20.0641 19.5839 20.2081C21.2159 20.7361 22.9439 20.9281 24.6719 21.0241C25.1519 21.0241 25.3439 21.1681 25.2962 21.6961C25.2479 22.9441 25.2479 24.1441 25.2959 25.3441ZM24.0959 12.4321C25.2479 11.8561 25.2959 11.9041 25.2959 13.2481C25.2959 14.1601 25.2959 15.1201 25.2959 16.0321C25.2959 17.0401 25.2479 18.0481 25.2959 19.0561C25.2959 19.6321 25.1999 19.8721 24.5759 19.8241C22.9439 19.7281 21.3599 19.4881 19.8239 19.0561C19.6319 19.0081 19.1999 19.0561 19.3919 18.5761C20.3039 16.0321 21.5039 13.6801 24.0959 12.4321ZM17.0399 15.2641C18.2879 14.2561 19.5839 13.4401 21.4079 12.8161C19.9199 14.4481 18.9599 16.0801 18.3359 17.9041C18.1439 18.4321 17.9039 18.4801 17.4239 18.2401C15.0239 17.2321 14.9759 16.9441 17.0399 15.2641ZM11.9519 24.9601C12.1919 22.6561 12.9119 20.4961 14.1119 18.5281C14.3519 18.0961 14.5919 18.0001 14.9759 18.2881C15.0239 18.2881 15.0239 18.3361 15.0719 18.3361C15.9359 18.7681 17.1359 19.0561 17.5199 19.7281C17.8559 20.4481 17.2799 21.5521 17.1839 22.5121C17.0879 23.4241 16.9919 24.2881 16.9919 25.2001C16.9919 25.7761 16.8479 26.0161 16.2239 25.9681C15.6479 25.9201 15.0719 25.9681 14.4959 25.9681C14.0159 25.9681 13.5359 25.9201 13.0559 25.9681C12.1439 26.1601 11.8559 25.8721 11.9519 24.9601ZM14.8799 34.0321C14.4479 34.2721 14.3519 34.0801 14.1599 33.7921C13.0079 31.9681 12.2879 30.0481 11.9999 27.8881C11.9039 27.3601 12.0479 27.2161 12.5759 27.2639C13.1999 27.3119 13.8239 27.2639 14.5919 27.2639C15.2639 27.3601 16.3199 26.8801 16.7999 27.4561C17.2319 27.9361 17.0399 28.9919 17.1359 29.7601C17.1359 29.8081 17.1359 29.9041 17.1359 29.9521C17.0879 30.8641 18.0479 31.8721 17.3279 32.6401C16.7999 33.3601 15.6959 33.5521 14.8799 34.0321ZM15.4559 35.5201C15.2639 35.2801 15.3599 35.1841 15.5519 35.0401C15.6479 34.9921 15.7919 34.8961 15.8879 34.8481C16.5599 34.5121 17.2319 33.9361 17.8079 33.9839C18.5279 34.0799 18.4799 35.1361 18.7679 35.7119C19.3439 36.8639 20.0639 37.9679 20.7839 39.1199C18.6719 38.4961 16.9439 37.1521 15.4559 35.5201ZM25.2479 40.2241C23.7119 39.9364 22.7039 39.1684 21.7919 38.1601C20.6879 36.9121 19.9679 35.4721 19.3919 33.9361C19.2479 33.5519 19.2479 33.3601 19.7279 33.2161C21.3599 32.7839 22.9919 32.5439 24.6719 32.4481C25.0562 32.4001 25.1999 32.5439 25.1999 32.9281C25.2479 35.3761 25.2479 37.7761 25.2479 40.2241ZM25.2959 30.5281C25.3437 31.0561 25.1037 31.2481 24.5759 31.2481C22.8479 31.2961 21.1679 31.5839 19.5359 32.0639C19.1039 32.2081 18.8639 32.1119 18.7679 31.5839C18.5279 30.3361 18.3839 29.1361 18.2399 27.8881C18.1919 27.3601 18.3839 27.2639 18.8639 27.2639C19.8719 27.3119 20.8319 27.2639 21.8399 27.2639C22.7519 27.2639 23.7119 27.2639 24.6239 27.2639C25.1039 27.2639 25.3919 27.3119 25.3439 27.9361C25.2479 28.8001 25.2479 29.6641 25.2959 30.5281ZM26.4959 12.0961C28.0799 12.3841 29.1837 13.2481 30.0959 14.3521C31.0559 15.5521 31.7279 16.8961 32.3037 18.3361C32.4959 18.8641 32.3517 19.0081 31.9197 19.1041C30.3357 19.4881 28.7517 19.7281 27.1677 19.8241C26.6397 19.8721 26.5435 19.6321 26.5435 19.1521C26.4959 16.8481 26.4959 14.4961 26.4959 12.0961ZM26.4959 21.7441C26.4959 21.2161 26.6399 21.0721 27.1199 21.0721C28.8479 21.0241 30.5279 20.7841 32.2079 20.2561C32.6399 20.1121 32.8799 20.2081 32.9759 20.6881C33.3117 22.2721 33.5037 23.8561 33.5517 25.4401C33.5517 25.9201 33.4077 26.0161 32.9759 26.0161C31.9679 26.0161 31.0079 26.0161 29.9999 26.0161C29.0879 26.0161 28.1279 26.0161 27.2159 26.0161C26.7359 26.0161 26.4479 25.9681 26.4959 25.3439C26.5439 24.1441 26.5439 22.9441 26.4959 21.7441ZM26.7359 27.4561C27.2159 26.9761 28.5599 27.3119 29.5199 27.3119C29.7119 27.3119 29.9519 27.3119 30.1439 27.3119H32.1119C33.5999 27.3119 33.6479 27.3119 33.4562 28.8479C33.3602 29.7599 33.1682 30.6236 33.0239 31.5359C32.9282 32.0159 32.7839 32.2559 32.2082 32.0636C30.5762 31.5836 28.9439 31.2959 27.2162 31.2959C26.5919 31.2959 26.4482 31.0559 26.4962 30.4799C26.5919 29.4241 26.0639 28.0801 26.7359 27.4561ZM28.0319 39.6961C27.8879 39.7919 27.7439 39.8881 27.5999 39.9361C26.5919 40.3681 26.5439 40.3201 26.5439 39.2639C26.5439 38.3039 26.5439 37.3439 26.5439 36.3361C26.5439 35.2801 26.5439 34.2719 26.5439 33.2161C26.5439 32.7361 26.5919 32.4481 27.2162 32.4961C28.8482 32.6401 30.4319 32.7839 31.9682 33.2639C32.1602 33.3119 32.5922 33.2639 32.4482 33.7439C31.4879 36.0961 30.3839 38.3521 28.0319 39.6961ZM30.5279 39.4561C31.0079 38.7839 31.3437 38.3039 31.6799 37.8719C32.4479 36.8161 33.0239 35.6161 33.4559 34.3679C33.6479 33.8399 33.8399 33.7919 34.3199 34.0319C35.0879 34.4161 35.8559 34.7519 36.5759 35.2799C34.9439 37.1521 33.0719 38.5441 30.5279 39.4561ZM39.7439 27.8401C39.5039 30.0001 38.7839 31.9681 37.6799 33.7441C37.4399 34.1764 37.2479 34.2721 36.8159 33.9841C36.0959 33.5521 35.3759 33.1684 34.6079 32.8801C34.1279 32.6881 34.0319 32.4001 34.1279 31.9201C34.4637 30.6241 34.6559 29.3281 34.7037 28.0321C34.7037 27.5521 34.8479 27.2641 35.4237 27.3121C36.6717 27.3601 37.9679 27.3121 39.2159 27.3121C39.5999 27.3121 39.9839 27.2641 39.7439 27.8401ZM37.6319 18.5281C38.8799 20.5441 39.5999 22.8001 39.8399 25.1521C39.8879 25.8241 39.7439 26.1121 39.0239 26.0164C38.4482 25.9684 37.8719 26.0164 37.2962 26.0164V25.9684C36.5282 25.9684 35.5202 26.2564 34.9919 25.8724C34.4639 25.4884 34.7999 24.3844 34.7039 23.6164C34.5599 22.5601 34.4159 21.5041 34.1759 20.4481C34.0317 19.8721 34.1759 19.6321 34.6559 19.4401C35.3759 19.1521 36.0959 18.7681 36.7679 18.3841C37.1519 18.1441 37.3439 18.0481 37.6319 18.5281Z" fill="#2fbccc"/>
</svg>