<svg width="120" height="120" viewBox="0 0 120 120" fill="none" xmlns="http://www.w3.org/2000/svg">
<path d="M60 24.375V37.5M60 24.375C60 21.7791 60.7698 19.2415 62.212 17.0831C63.6542 14.9248 65.704 13.2425 68.1023 12.2491C70.5006 11.2557 73.1396 10.9958 75.6856 11.5022C78.2316 12.0086 80.5702 13.2587 82.4058 15.0942C84.2414 16.9298 85.4914 19.2684 85.9978 21.8144C86.5042 24.3604 86.2443 26.9994 85.2509 29.3977C84.2575 31.796 82.5753 33.8459 80.4169 35.288C78.2585 36.7302 75.7209 37.5 73.125 37.5H60M60 24.375C60 21.7791 59.2302 19.2415 57.788 17.0831C56.3459 14.9248 54.296 13.2425 51.8977 12.2491C49.4994 11.2557 46.8604 10.9958 44.3144 11.5022C41.7684 12.0086 39.4298 13.2587 37.5942 15.0942C35.7587 16.9298 34.5086 19.2684 34.0022 21.8144C33.4958 24.3604 33.7557 26.9994 34.7491 29.3977C35.7425 31.796 37.4248 33.8459 39.5831 35.288C41.7415 36.7302 44.2791 37.5 46.875 37.5H60" stroke="#1A1A1A" stroke-width="6" stroke-miterlimit="10" stroke-linecap="round"/>
<path d="M97.5 37.5H22.5C18.3579 37.5 15 40.8579 15 45V56.25C15 60.3921 18.3579 63.75 22.5 63.75H97.5C101.642 63.75 105 60.3921 105 56.25V45C105 40.8579 101.642 37.5 97.5 37.5Z" stroke="#1A1A1A" stroke-width="6" stroke-linecap="round" stroke-linejoin="round"/>
<path d="M97.5 63.75V97.5C97.5 100.484 96.3147 103.345 94.205 105.455C92.0952 107.565 89.2337 108.75 86.25 108.75H33.75C30.7663 108.75 27.9048 107.565 25.795 105.455C23.6853 103.345 22.5 100.484 22.5 97.5V63.75M60 37.5V108.75" stroke="#1A1A1A" stroke-width="6" stroke-linecap="round" stroke-linejoin="round"/>
</svg>
