<svg width="120" height="120" viewBox="0 0 120 120" fill="none" xmlns="http://www.w3.org/2000/svg">
<path d="M10 110C10 102.925 10 99.39 12.2 97.2C14.395 95 17.925 95 25 95C32.075 95 35.61 95 37.8 97.2C40 99.395 40 102.93 40 110V65C40 57.925 40 54.39 42.2 52.2C44.395 50 47.93 50 55 50H65C72.075 50 75.61 50 77.8 52.2C80 54.395 80 57.93 80 65V110V95C80 87.925 80 84.39 82.2 82.2C84.395 80 87.925 80 95 80C102.075 80 105.61 80 107.8 82.2C110 84.395 110 87.93 110 95V110" stroke="#1A1A1A" stroke-width="7" stroke-linecap="round"/>
<path d="M55.7299 15.115C57.6299 11.7 58.5799 10 59.9999 10C61.4199 10 62.3699 11.7 64.2699 15.115L64.7599 15.995C65.2999 16.965 65.5699 17.445 65.9899 17.765C66.4149 18.085 66.9399 18.205 67.9899 18.44L68.9399 18.66C72.6299 19.495 74.4749 19.91 74.9149 21.32C75.3549 22.73 74.0949 24.205 71.5799 27.145L70.9299 27.905C70.2149 28.74 69.8549 29.155 69.6949 29.675C69.5349 30.195 69.5899 30.75 69.6949 31.865L69.7949 32.88C70.1749 36.805 70.3649 38.77 69.2199 39.64C68.0699 40.515 66.3399 39.715 62.8849 38.125L61.9949 37.715C61.0099 37.265 60.5199 37.035 59.9999 37.035C59.4799 37.035 58.9899 37.265 58.0049 37.715L57.1149 38.125C53.6599 39.715 51.9299 40.515 50.7799 39.64C49.6299 38.77 49.8249 36.805 50.2049 32.88L50.3049 31.865C50.4099 30.75 50.4649 30.195 50.3049 29.675C50.1449 29.155 49.7849 28.74 49.0699 27.905L48.4199 27.145C45.9049 24.205 44.6449 22.735 45.0849 21.32C45.5249 19.91 47.3699 19.495 51.0599 18.66L52.0099 18.44C53.0599 18.205 53.5849 18.09 54.0099 17.765C54.4299 17.445 54.6999 16.965 55.2399 15.995L55.7299 15.115Z" stroke="#1A1A1A" stroke-width="7"/>
</svg>
