 <svg width="48" height="48" viewBox="0 0 48 48" fill="none" xmlns="http://www.w3.org/2000/svg">
    <path d="M6.14404 33.408H7.68004V35.616H6.14404V33.408Z" fill="#2fbccc"/>
    <path d="M38.88 31.776C38.88 30.24 37.632 28.992 36.096 28.992C35.904 28.992 35.616 28.992 35.328 29.088L26.304 31.68C26.208 31.68 26.112 31.776 26.016 31.68L24 31.392C25.44 30.528 25.92 28.8 25.152 27.36C24.672 26.4 23.616 25.824 22.56 25.824H13.152C12.768 25.824 12.384 25.92 12 26.112L10.464 27.072V25.92H1.63202V38.592H10.56V36.768L17.952 39.84C18.432 40.032 19.008 40.032 19.488 39.936L36.96 34.464C38.112 34.08 38.88 33.12 38.88 31.776ZM9.12002 37.056H3.16802V27.456H6.14402V31.968H7.68002V27.456H9.21602V37.056H9.12002ZM19.104 38.4C18.912 38.496 18.72 38.496 18.624 38.4L10.56 35.136V28.8L12.768 27.552C12.864 27.456 12.96 27.456 13.152 27.456H22.464C23.328 27.456 24 28.128 24 28.992C24 29.856 23.328 30.528 22.464 30.528H17.28V31.296L17.088 32.064L25.632 33.504C25.92 33.6 26.304 33.504 26.592 33.408L35.616 30.816C36.288 30.624 36.96 31.008 37.152 31.68C37.344 32.352 36.96 33.024 36.288 33.216L19.104 38.4Z" fill="#2fbccc"/>
    <path d="M30.816 8.64011C31.296 8.64011 31.68 8.25611 31.68 7.77611C31.68 7.29611 31.296 6.91211 30.816 6.91211H19.776C19.296 6.91211 18.912 7.29611 18.912 7.77611C18.816 8.25611 19.2 8.64011 19.776 8.64011H23.616C24.768 8.64011 25.824 9.40811 26.208 10.4641H19.776C19.296 10.4641 18.912 10.8481 18.912 11.3281C18.912 11.8081 19.296 12.1921 19.776 12.1921H26.208C25.824 13.2481 24.864 14.0161 23.616 14.0161H19.872C19.488 14.0161 19.2 14.2081 19.008 14.4961C18.816 14.7841 18.912 15.1681 19.104 15.4561L26.592 24.2881C26.784 24.4801 27.072 24.5761 27.264 24.5761C27.456 24.5761 27.648 24.4801 27.84 24.3841C28.224 24.0961 28.224 23.5201 27.936 23.1361L21.696 15.7441H23.52C25.728 15.7441 27.552 14.2081 27.936 12.0961H30.72C31.2 12.0961 31.584 11.7121 31.584 11.2321C31.584 10.7521 31.2 10.3681 30.72 10.3681H27.936C27.84 9.79211 27.552 9.21611 27.168 8.64011H30.816Z" fill="#2fbccc"/>
    <path d="M4.89604 21.888C5.37604 21.888 5.76004 21.504 5.85604 21.024C6.62404 10.464 15.84 2.30399 26.592 3.07199C36.48 3.83999 44.256 12.096 44.544 21.984C44.832 32.352 36.96 40.8 27.072 41.76L28.416 40.512C28.8 40.128 28.8 39.552 28.416 39.168C28.032 38.784 27.456 38.784 27.072 39.168L23.328 42.72L26.88 46.464C27.264 46.848 27.84 46.848 28.224 46.464C28.608 46.08 28.608 45.504 28.224 45.12L26.688 43.488C37.92 42.624 46.848 32.928 46.272 21.216C45.792 10.752 37.44 2.11199 26.88 1.24799C14.976 0.383987 4.80004 9.31199 3.93604 20.928C3.93604 21.408 4.32004 21.888 4.89604 21.888Z" fill="#2fbccc"/>
</svg>  