<svg width="48" height="48" viewBox="0 0 48 48" fill="none" xmlns="http://www.w3.org/2000/svg">
<path d="M29.3375 2.42735C17.5375 0.127347 6.3375 7.32735 3.4375 18.8273L2.6375 17.8273C2.4375 17.5273 2.0375 17.3273 1.6375 17.3273C1.2375 17.2273 0.8375 17.3273 0.5375 17.6273C0.2375 17.8273 0.0375 18.2273 0.0375 18.6273C-0.0625 19.0273 0.0375 19.4273 0.3375 19.7273L4.1375 24.3273L8.7375 20.6273C9.0375 20.4273 9.2375 20.0273 9.2375 19.6273C9.3375 19.2273 9.2375 18.8273 8.9375 18.5273C8.7375 18.2273 8.3375 18.0273 7.9375 18.0273C7.5375 17.9273 7.1375 18.0273 6.8375 18.3273L6.4375 18.6273C9.4375 9.42735 18.6375 3.52735 28.2375 5.02735C38.0375 6.62735 45.2375 15.6273 44.7375 25.5273C44.4375 30.7273 42.0375 35.5273 38.1375 39.0273C34.2375 42.5273 29.1375 44.2273 23.9375 43.9273C23.1375 43.9273 22.4375 44.5273 22.5375 45.2273C22.4375 45.5273 22.5375 45.9273 22.7375 46.2273C22.9375 46.5273 23.3375 46.8273 23.8375 46.9273H23.9375C24.4375 46.9273 24.9375 46.9273 25.3375 46.9273C30.8375 46.9273 36.0375 44.9273 40.2375 41.2273C44.7375 37.2273 47.4375 31.7273 47.7375 25.6273C48.2375 14.4273 40.3375 4.42735 29.3375 2.42735Z" fill="#2FBCCC"/>
<path d="M19.0827 23.3719H20.0966V31.2703H21.561V22H19.7155L19.0827 23.3719Z" fill="#2FBCCC"/>
<path d="M28.9607 25.7908C28.4298 25.2149 27.7328 24.9228 26.8888 24.9228C26.663 24.9228 26.4342 24.9488 26.2087 25.0001C26.0378 25.0389 25.8604 25.0945 25.6794 25.1654L26.1218 23.4031H29.3824V22H25.1351L24.0216 26.8216L24.512 26.9362L24.5478 26.8972C24.7736 26.6496 25.0378 26.4603 25.3329 26.3346C25.6293 26.2085 25.9563 26.1445 26.3048 26.1445C26.8791 26.1445 27.349 26.327 27.7013 26.6868C28.0525 27.0458 28.2306 27.519 28.2306 28.0934C28.2306 28.6942 28.0608 29.184 27.7258 29.5493C27.3914 29.9138 26.947 30.0987 26.4051 30.0987C26.0388 30.0987 25.7018 29.9983 25.4036 29.8006C25.1039 29.602 24.8547 29.311 24.6628 28.9356L24.601 28.8147L23.5308 30.0648L23.5754 30.1291C23.9015 30.5992 24.2965 30.9516 24.7492 31.1767C25.1999 31.4008 25.7371 31.5146 26.346 31.5146C27.3768 31.5146 28.2122 31.1969 28.8289 30.5706C29.4468 29.943 29.76 29.0928 29.76 28.0435C29.7601 27.1243 29.4911 26.3664 28.9607 25.7908Z" fill="#2FBCCC"/>
<path d="M24.6375 36.8272C22.4375 36.8272 20.1375 36.8272 17.9375 36.8272C15.1375 36.8272 12.9375 34.6272 12.9375 31.8272C12.9375 27.4272 12.9375 22.8272 12.9375 17.9272C12.9375 15.6272 14.5375 13.6272 16.7375 13.2272L17.5375 13.1272V13.9272C17.5375 14.1272 17.5375 14.2272 17.5375 14.4272C17.5375 14.7272 17.5375 15.0272 17.5375 15.3272C17.5375 16.0272 18.0375 16.4272 18.6375 16.4272C19.2375 16.4272 19.6375 16.0272 19.6375 15.3272C19.6375 15.0272 19.6375 14.6272 19.6375 14.3272C19.6375 14.1272 19.6375 14.0272 19.6375 13.8272V13.2272H30.4375V13.8272C30.4375 14.0272 30.4375 14.1272 30.4375 14.3272C30.4375 14.7272 30.4375 15.0272 30.4375 15.3272C30.4375 16.0272 30.8375 16.4272 31.4375 16.4272C32.0375 16.4272 32.4375 15.9272 32.4375 15.3272C32.4375 15.0272 32.4375 14.7272 32.4375 14.4272C32.4375 14.3272 32.4375 14.1272 32.4375 14.0272V13.4272H33.0375C34.6375 13.3272 36.4375 15.2272 36.7375 16.5272C36.9375 17.2272 37.0375 17.7272 37.0375 18.3272C37.0375 22.9272 37.0375 27.5272 37.0375 31.8272C37.0375 34.8272 34.8375 37.0272 31.9375 37.0272C29.2375 36.8272 26.9375 36.8272 24.6375 36.8272ZM16.1375 14.6272C14.9375 15.2272 14.0375 16.4272 14.0375 17.9272C14.0375 22.9272 14.0375 27.4272 14.0375 31.8272C14.0375 33.9272 15.6375 35.5272 17.8375 35.5272C22.3375 35.5272 26.8375 35.5272 31.4375 35.5272C33.7375 35.5272 35.3375 33.9272 35.3375 31.6272C35.3375 27.3272 35.3375 22.8272 35.3375 18.1272C35.3375 17.7272 35.2375 17.1272 35.1375 16.7272C34.9375 15.9272 34.0375 15.0272 33.3375 14.7272C33.3375 14.9272 33.3375 15.1272 33.3375 15.3272C33.2375 16.6272 32.3375 17.6272 31.1375 17.6272C29.9375 17.6272 29.0375 16.6272 28.9375 15.4272C28.9375 15.1272 28.9375 14.7272 28.9375 14.4272H20.6375C20.6375 14.7272 20.6375 15.0272 20.6375 15.3272C20.6375 16.6272 19.6375 17.5272 18.5375 17.6272C17.3375 17.6272 16.3375 16.6272 16.2375 15.4272C16.1375 15.0272 16.1375 14.8272 16.1375 14.6272ZM25.0375 34.7272C22.8375 34.7272 20.6375 34.7272 18.3375 34.7272C16.2375 34.7272 15.0375 33.5272 15.0375 31.4272V19.5272H34.4375V20.1272C34.4375 20.2272 34.4375 20.3272 34.4375 20.3272C34.4375 20.5272 34.4375 20.7272 34.4375 20.9272C34.4375 24.5272 34.4375 28.0272 34.4375 31.5272C34.4375 33.5272 33.2375 34.7272 31.2375 34.7272C29.2375 34.7272 27.1375 34.7272 25.0375 34.7272ZM16.2375 20.8272V31.4272C16.2375 32.8272 16.8375 33.4272 18.2375 33.4272C22.5375 33.4272 26.9375 33.4272 31.3375 33.4272C32.6375 33.4272 33.2375 32.7272 33.2375 31.5272C33.2375 27.9272 33.2375 24.4272 33.2375 20.9272C33.2375 20.8272 33.2375 20.8272 33.2375 20.7272H16.2375V20.8272Z" fill="#2FBCCC"/>
<path d="M19.1375 13.6271C19.1375 14.2271 19.1375 14.7271 19.1375 15.2271C19.1375 15.7271 18.9375 16.1271 18.4375 16.1271C18.0375 16.1271 17.7375 15.8271 17.7375 15.2271C17.7375 14.0271 17.7375 13.9271 17.7375 12.7271C17.7375 12.2271 17.9375 11.9271 18.3375 11.8271C18.7375 11.8271 19.0375 12.0271 19.0375 12.6271C19.1375 13.4271 19.0375 13.1271 19.1375 13.6271Z" fill="#2FBCCC"/>
<path d="M31.8375 13.6271C31.8375 14.2271 31.8375 14.7271 31.8375 15.2271C31.8375 15.7271 31.6375 16.1271 31.1375 16.1271C30.7375 16.1271 30.4375 15.8271 30.4375 15.2271C30.4375 14.0271 30.4375 13.9271 30.4375 12.7271C30.4375 12.2271 30.6375 11.9271 31.0375 11.8271C31.4375 11.8271 31.7375 12.0271 31.7375 12.6271C31.8375 13.4271 31.8375 13.1271 31.8375 13.6271Z" fill="#2FBCCC"/>
</svg>
