<svg width="48" height="48" viewBox="0 0 48 48" fill="none" xmlns="http://www.w3.org/2000/svg">
    <path d="M33.408 3.55211V2.01611C32.832 2.01611 32.256 2.01611 31.68 2.11211L31.872 3.64811C32.448 3.64811 32.928 3.55211 33.408 3.55211Z" fill="#2fbccc"/>
    <path d="M7.87201 6.33604C11.616 2.59204 17.664 2.59204 21.408 6.33604L23.52 8.44804C23.808 8.73604 24.288 8.73604 24.672 8.44804L26.784 6.33604C27.84 5.28004 29.184 4.41604 30.624 4.03204L30.144 2.49604C28.416 3.07204 26.88 3.93604 25.632 5.28004L24 6.81604L22.464 5.28004C18.144 0.960039 11.04 0.960039 6.72001 5.28004C6.43201 5.56804 6.04801 5.95204 5.76001 6.33604L7.00801 7.29604C7.29601 7.00804 7.58401 6.62404 7.87201 6.33604Z" fill="#2fbccc"/>
    <path d="M19.296 40.5122H17.76V42.0482H19.296V40.5122Z" fill="#2fbccc"/>
    <path d="M30.24 40.5122H28.704V42.0482H30.24V40.5122Z" fill="#2fbccc"/>
    <path d="M46.176 31.9681C47.904 30.2401 47.904 27.3601 46.176 25.5361L39.168 18.5281C42.24 15.3601 42.048 10.2721 38.88 7.29609C35.712 4.32009 30.816 4.41609 27.744 7.48809L24 11.2321L20.256 7.48809C17.184 4.41609 12.096 4.32009 8.92801 7.48809C5.95202 10.5601 5.85601 15.4561 8.83201 18.6241L1.82402 25.6321C0.0960151 27.3601 0.0960151 30.2401 1.82402 32.0641L6.72001 36.9601V37.4401H5.95201C5.47201 37.4401 5.18401 37.8241 5.18401 38.2081V46.0801H6.72001V39.0721H20.832V46.0801H22.368V38.2081C22.368 37.7281 21.984 37.4401 21.6 37.4401H20.832V34.2721C20.832 31.9681 19.2 30.0481 16.896 29.6641V26.7841L19.296 29.1841C21.888 31.6801 26.016 31.6801 28.512 29.1841L30.912 26.7841V29.6641C28.608 30.0481 26.976 31.9681 26.976 34.2721V37.4401H26.208C25.728 37.4401 25.44 37.8241 25.44 38.2081V46.0801H26.976V39.0721H41.088V46.0801H42.624V38.2081C42.624 37.7281 42.24 37.4401 41.856 37.4401H41.088V36.9601L46.176 31.9681ZM19.296 34.2721V37.4401H8.35201V36.6721C8.35201 36.4801 8.25601 36.2881 8.16001 36.0961L2.97602 30.9121C1.82402 29.7601 1.82402 27.8401 2.97602 26.6881L9.98401 19.6801L11.232 20.9281C10.944 21.4081 10.752 21.9841 10.752 22.5601V24.8641L7.68001 27.9361L8.83201 29.0881L10.752 27.1681V30.4321H12.288V22.5601C12.288 21.6961 12.96 21.0241 13.824 21.0241C14.688 21.0241 15.36 21.6961 15.36 22.5601V30.4321C15.36 30.9121 15.744 31.2001 16.128 31.2001C17.856 31.1041 19.296 32.5441 19.296 34.2721ZM27.456 28.0321C25.536 29.9521 22.368 29.9521 20.448 28.0321L16.896 24.4801V22.4641C16.896 20.7361 15.456 19.2961 13.728 19.2961C13.152 19.2961 12.672 19.4881 12.192 19.6801L10.08 17.5681C7.58401 15.0721 7.48801 11.0401 9.98401 8.54409C12.48 6.04809 16.512 5.95209 19.008 8.44809C19.008 8.44809 19.008 8.44809 19.104 8.54409L23.424 12.8641C23.712 13.1521 24.192 13.1521 24.576 12.8641L28.896 8.54409C31.392 6.04809 35.424 6.04809 37.92 8.54409C40.416 11.0401 40.416 15.0721 37.92 17.5681L35.808 19.6801C35.328 19.3921 34.752 19.2961 34.272 19.2961C32.544 19.2961 31.104 20.7361 31.104 22.4641V24.4801L27.456 28.0321ZM28.704 37.3441V34.1761C28.704 32.4481 30.144 31.0081 31.872 31.0081C32.352 31.0081 32.64 30.6241 32.64 30.2401V22.3681C32.64 21.5041 33.312 20.8321 34.176 20.8321C35.04 20.8321 35.712 21.5041 35.712 22.3681V30.2401H37.248V26.9761L39.168 28.8961L40.32 27.7441L37.248 24.6721V22.3681C37.248 21.7921 37.056 21.2161 36.768 20.7361L38.016 19.4881L45.024 26.4961C46.176 27.6481 46.176 29.5681 45.024 30.7201L39.84 35.9041C39.648 36.0961 39.648 36.2881 39.648 36.4801V37.2481H28.704V37.3441Z" fill="#2fbccc"/>
</svg>  