<?xml version="1.0" encoding="utf-8"?>
<!-- Generator: Adobe Illustrator 23.0.1, SVG Export Plug-In . SVG Version: 6.00 Build 0)  -->
<svg version="1.1" id="Layer_1" xmlns="http://www.w3.org/2000/svg" xmlns:xlink="http://www.w3.org/1999/xlink" x="0px" y="0px"
	 viewBox="0 0 200 200" style="enable-background:new 0 0 200 200;" xml:space="preserve">
<style type="text/css">
	.st0{fill:#FFFFFF;}
</style>
<g>
	<path class="st0" d="M94.9,1c4.1,0,8.3,0,12.4,0c2.4,0.3,4.7,0.5,7.1,0.9c22.2,3.4,41.4,12.7,57,29.1
		c13.8,14.6,22.7,31.6,26.1,51.4c0.6,3.5,1,7.1,1.5,10.7c0,4.1,0,8.3,0,12.4c-0.1,0.6-0.3,1.1-0.3,1.7c-0.6,8.6-2.4,17-5.3,25.1
		c-20.2,55.9-85.8,81.5-138.6,54.1c-0.9-0.5-2.2-0.6-3.2-0.3c-15.2,3.9-30.4,7.9-45.6,11.9c-1.6,0.4-3.2,0.8-4.9,1.2
		c0.2-0.9,0.4-1.5,0.6-2.1c4.3-15.7,8.6-31.4,12.9-47.1c0.2-0.9,0.1-2.1-0.3-2.8C3.1,126.6-0.5,105,3.2,82.2
		C10.1,40.3,43.6,9.7,83.7,2.6C87.4,1.9,91.2,1.5,94.9,1z M24.7,175.3c0.9-0.2,1.4-0.3,1.9-0.4c9-2.3,18.1-4.7,27.1-7.1
		c1.3-0.4,2.4-0.2,3.6,0.5c18.1,10.9,37.6,14.7,58.5,10.7c44.6-8.5,73.5-50.7,65.3-95.3c-7.6-41.6-47.8-71.2-90-66
		C67.9,20.6,49,31.2,35,50c-13.6,18.2-18.9,38.8-15.6,61.4c1.7,11.7,6.1,22.4,12.6,32.3c0.7,1.1,0.9,2.1,0.5,3.4
		c-1.5,5.3-3,10.7-4.5,16C27,167.1,25.9,171,24.7,175.3z"/>
	<path class="st0" d="M126.8,145.8c-7,0.3-12.7-2.3-18.6-4.4c-16.6-5.8-29.5-16.6-40.4-30c-5.3-6.4-10.5-12.8-14-20.5
		c-3.6-8.1-5.1-16.3-1.2-24.6c1.6-3.6,4.2-6.7,6.5-9.9c1.3-1.8,3.5-2.7,5.7-2.8c2.3-0.1,4.7-0.3,6.9,0.1c1.3,0.3,2.7,1.6,3.3,2.8
		c1.3,2.3,2.2,4.8,3.2,7.2c1.7,4,3.3,8.1,5.1,12.1c0.9,2,0.9,3.9-0.4,5.6c-1.6,2.2-3.2,4.5-5,6.6c-2.8,3.3-2.8,3.7-0.7,7.2
		c7.9,12.8,18.6,22.2,32.6,27.8c2.9,1.2,4,1,6-1.5c2.4-2.9,4.8-5.7,7-8.7c1.2-1.7,2.7-2.1,4.5-1.6c0.7,0.2,1.4,0.4,2,0.7
		c6.1,2.7,12.3,5.4,18.4,8.1c1.8,0.8,2.7,2.1,2.6,4.1c-0.2,7.4-2.6,13.5-9.4,17.4C136.4,144.4,131.6,146.2,126.8,145.8z"/>
</g>
</svg>
